<svg width="60" height="30" viewBox="0 0 60 30" fill="none" xmlns="http://www.w3.org/2000/svg">
<g clip-path="url(#clip0_1_556)">
<path d="M42.7576 13.5769C42.572 13.2864 42.454 12.9581 42.4121 12.6159C42.3941 12.4887 42.378 12.3607 42.3695 12.2323C42.3544 12.0075 42.4062 11.7898 42.4562 11.5731C42.5532 11.1521 42.6162 10.7302 42.5395 10.2972C42.4423 9.68405 42.1744 9.1107 41.7663 8.64293C41.5757 8.42763 41.3434 8.2616 41.1104 8.09719C40.8467 7.91135 40.598 7.71207 40.4405 7.42149C40.4293 7.40102 40.4119 7.38423 40.399 7.36474C40.2529 7.14239 40.1126 6.91734 40.0598 6.65059C40.0422 6.56254 40.0259 6.47427 40.0053 6.38687C39.9474 6.14026 39.9058 5.88792 39.8245 5.649C39.6534 5.14561 39.3351 4.73741 38.9419 4.38586C38.573 4.05023 38.1219 3.81813 37.6344 3.71319C37.4971 3.68362 37.3602 3.652 37.2239 3.61831C37.0205 3.57727 36.8263 3.49983 36.6505 3.3899C36.5314 3.30867 36.4142 3.2242 36.292 3.14763C36.1021 3.02297 35.94 2.86019 35.8161 2.66958C35.721 2.53127 35.6279 2.39156 35.5337 2.2525C35.343 1.96528 35.0992 1.71727 34.8152 1.52178C34.2688 1.15106 33.6698 0.933584 33.0054 0.934126C32.7873 0.944414 32.5701 0.969108 32.3551 1.00799C32.1888 1.03019 32.0239 1.06192 31.8576 1.08597C31.6368 1.11705 31.4225 1.06431 31.2073 1.02792C30.8967 0.985136 30.6002 0.871201 30.3409 0.694884C30.2458 0.626761 30.1469 0.563079 30.0464 0.503079C29.9092 0.421093 29.7727 0.335967 29.629 0.266869C29.2302 0.0830786 28.7948 -0.00800439 28.3558 0.000551572C27.7983 -0.000314854 27.271 0.118819 26.793 0.417519C26.6705 0.494089 26.551 0.575534 26.428 0.651237C26.3081 0.724884 26.1863 0.794523 26.0646 0.864703C25.9207 0.947122 25.7513 0.972898 25.5893 0.93705C25.3979 0.899685 25.2058 0.865136 25.0165 0.818566C24.5696 0.698349 24.1004 0.686978 23.6483 0.785533C23.0141 0.932718 22.4478 1.20575 22.0043 1.69474C21.8709 1.84192 21.757 2.00644 21.6324 2.16185C21.5322 2.28662 21.4302 2.40976 21.3278 2.53257C21.2505 2.62766 21.1405 2.69048 21.0194 2.70857C20.8231 2.73987 20.6275 2.78048 20.4298 2.79889C19.8462 2.84687 19.2892 3.06423 18.8271 3.42423C18.29 3.84163 17.9048 4.36192 17.7232 5.0242C17.6881 5.1521 17.6482 5.2786 17.6067 5.40467C17.4543 5.89528 17.1175 6.3077 16.6671 6.55474C16.5002 6.64831 16.333 6.74124 16.1684 6.8386C15.9678 6.95319 15.7854 7.09691 15.6272 7.2651C14.9386 8.019 14.6188 8.89301 14.7605 9.92015C14.793 10.1555 14.8205 10.3954 14.7687 10.6316C14.7288 10.8141 14.67 10.9924 14.6239 11.1737C14.5696 11.378 14.4753 11.5695 14.3463 11.7371C14.2247 11.8995 14.0991 12.0591 13.9766 12.2211C13.775 12.4813 13.6271 12.7789 13.5412 13.0967C13.489 13.2885 13.4508 13.4839 13.4268 13.6813C13.3643 14.2553 13.431 14.8118 13.6962 15.3336C13.781 15.5007 13.8712 15.665 13.9585 15.8307C14.0407 15.9865 14.1274 16.1447 14.1474 16.3199C14.1726 16.5439 14.2586 16.7574 14.2466 16.9879C14.2415 17.0879 14.2705 17.1891 14.2755 17.2903C14.287 17.5196 14.2287 17.7394 14.174 17.9592C14.0958 18.2738 14.014 18.5877 14.0094 18.9171C14.0294 19.0914 14.0389 19.2676 14.0714 19.4395C14.1705 20.0164 14.4268 20.5547 14.8119 20.9954C14.9998 21.2072 15.2267 21.3742 15.4507 21.5441C15.6906 21.7193 15.8945 21.9391 16.0512 22.1913C16.2148 22.4534 16.3217 22.7467 16.3652 23.0525C16.4055 23.3501 16.4342 23.6526 16.5438 23.9343C16.9279 24.9215 17.6053 25.6014 18.6377 25.9011C18.8475 25.962 19.0592 26.0169 19.266 26.0869C19.5513 26.1802 19.7945 26.3707 19.9535 26.6252C20.0493 26.7768 20.1437 26.9302 20.2288 27.0881C20.5021 27.6022 20.9217 28.0235 21.4347 28.2988C21.8654 28.5341 22.3199 28.6938 22.8156 28.6967C23.0452 28.698 23.2753 28.6719 23.5049 28.6547C23.7227 28.6382 23.9402 28.602 24.1582 28.6446C24.273 28.667 24.3866 28.6953 24.4999 28.724C24.785 28.7964 25.0619 28.8873 25.2973 29.0743C25.4043 29.1594 25.517 29.237 25.6239 29.3221C26.0561 29.6694 26.5788 29.8848 27.1301 29.9427C27.7454 30.0117 28.3381 29.9446 28.8922 29.6487C29.0609 29.5588 29.2278 29.4647 29.3961 29.3745C29.5551 29.2819 29.7287 29.2173 29.9096 29.1836C30.1063 29.1539 30.3034 29.1274 30.501 29.1042C30.5706 29.0938 30.6412 29.0936 30.7108 29.1037C30.9408 29.1457 31.1718 29.1858 31.3978 29.2445C31.8384 29.3587 32.2807 29.4034 32.7307 29.315C33.5434 29.1552 34.2247 28.7798 34.7178 28.0977C34.7407 28.0661 34.7662 28.0364 34.7897 28.0051C34.9798 27.7371 35.2215 27.51 35.5009 27.337C35.8166 27.1472 36.1379 26.997 36.5074 26.9516C36.7322 26.9247 36.9549 26.8838 37.1746 26.829C38.0405 26.61 38.989 25.7787 39.2618 24.812C39.2926 24.7031 39.3251 24.5946 39.3527 24.4849C39.436 24.1538 39.549 23.841 39.7569 23.5591C39.968 23.2724 40.1912 23.0085 40.5046 22.831C40.5996 22.7771 40.6914 22.7175 40.7838 22.6591C40.9748 22.5443 41.1525 22.4086 41.3132 22.2543C41.6884 21.8749 41.9643 21.4087 42.1162 20.8971C42.2292 20.559 42.2698 20.2008 42.2354 19.8459C42.2094 19.6211 42.1779 19.3969 42.1515 19.1722C42.1214 18.9748 42.1262 18.7737 42.1652 18.578C42.1994 18.43 42.2371 18.2828 42.2693 18.1345C42.3031 17.9736 42.366 17.8202 42.4551 17.682C42.5527 17.5314 42.6539 17.383 42.7584 17.2368C42.99 16.926 43.1583 16.5727 43.2536 16.1969C43.3105 15.9575 43.3414 15.7125 43.3456 15.4665C43.3538 14.9832 43.2763 14.5168 43.0508 14.0839C42.9617 13.91 42.8639 13.7408 42.7576 13.5769ZM42.4621 15.6567C42.4273 16.052 42.2812 16.4293 42.0406 16.7449C41.9108 16.9204 41.7917 17.1046 41.6758 17.2895C41.5637 17.4731 41.4815 17.6735 41.4322 17.8828C41.4153 17.9505 41.388 18.0155 41.3652 18.0816C41.3584 18.0955 41.3529 18.11 41.3486 18.125C41.3232 18.2903 41.2995 18.4557 41.2743 18.6209C41.248 18.8501 41.253 19.0817 41.2888 19.3096C41.3162 19.5421 41.353 19.7739 41.3705 20.007C41.4129 20.5742 41.0491 21.4589 40.4284 21.8507C40.2732 21.9487 40.1175 22.0457 39.9626 22.1444C39.6737 22.3178 39.4227 22.5479 39.225 22.8208C39.2054 22.8492 39.1754 22.8703 39.1537 22.8977C39.1206 22.9397 39.0894 22.9833 39.0598 23.0279C39.0384 23.06 39.0249 23.0982 39.0013 23.1284C38.8182 23.3681 38.683 23.6408 38.6033 23.9316C38.5562 24.0926 38.5086 24.2537 38.4696 24.417C38.329 25.0063 37.9652 25.4276 37.4733 25.7539C37.2215 25.9126 36.9379 26.0143 36.6427 26.0519C36.3923 26.0912 36.1406 26.1299 35.896 26.1938C35.7254 26.2483 35.5588 26.3148 35.3976 26.3929C35.319 26.426 35.2428 26.4648 35.1657 26.5014C35.1479 26.5093 35.1308 26.5187 35.1148 26.5295C35.0229 26.5947 34.9336 26.6637 34.8399 26.7259C34.6201 26.8758 34.4252 27.0593 34.2621 27.2695C34.1694 27.3854 34.0751 27.5002 33.9875 27.6198C33.6986 28.0148 33.3051 28.2535 32.8438 28.392C32.6372 28.4554 32.4227 28.4885 32.2066 28.4902C32.0162 28.4853 31.8271 28.4571 31.6436 28.4062C31.3925 28.3499 31.1427 28.2817 30.8884 28.2464C30.709 28.2216 30.5231 28.2425 30.3402 28.2443C30.3091 28.2443 30.2783 28.2532 30.2472 28.2542C30.189 28.2484 30.1304 28.2496 30.0726 28.2576C29.7999 28.3361 29.5083 28.3445 29.2507 28.4787C29.0777 28.5686 28.9031 28.6559 28.7312 28.7483C28.5215 28.8612 28.3165 28.9863 28.0797 29.0346C27.3982 29.1737 26.7597 29.0909 26.1905 28.6595C26.0226 28.5322 25.8543 28.4047 25.6817 28.2837C25.4702 28.1351 25.2346 28.0246 24.9853 27.957C24.9335 27.9405 24.8826 27.9213 24.8329 27.8995C24.8121 27.8889 24.7905 27.88 24.7682 27.8731C24.604 27.8412 24.4399 27.8087 24.2749 27.7809C24.0464 27.7485 23.8147 27.7459 23.5857 27.7732C23.3913 27.7912 23.1973 27.8138 23.0026 27.8263C22.5572 27.855 22.156 27.7144 21.7786 27.4926C21.4748 27.3191 21.223 27.0676 21.0493 26.764C20.951 26.5909 20.8504 26.4191 20.7479 26.2486C20.4454 25.7335 19.9528 25.3578 19.3761 25.2022C19.2186 25.1569 19.0615 25.1099 18.9026 25.0704C18.2538 24.9081 17.8094 24.4941 17.4867 23.9281C17.3381 23.6674 17.2931 23.3781 17.2511 23.0879C17.2107 22.8096 17.1771 22.5284 17.0658 22.2679C16.8518 21.7673 16.5713 21.3119 16.1313 20.9729C16.0106 20.88 15.8934 20.7824 15.7705 20.6926C15.3326 20.3731 15.0856 19.9326 14.9561 19.417C14.873 19.0821 14.8752 18.7315 14.9623 18.3975C15.0295 18.1488 15.0837 17.897 15.1248 17.6428C15.146 17.4529 15.1479 17.2613 15.1301 17.071C15.1264 17.0145 15.1127 16.8198 15.0909 16.6461C15.0756 16.5239 15.0624 16.4035 15.0469 16.3033C15.0117 15.9551 14.8612 15.668 14.6975 15.3637C14.6144 15.2091 14.5311 15.0543 14.4541 14.8963C14.3072 14.579 14.2484 14.2281 14.2838 13.8804C14.2958 13.7286 14.3189 13.578 14.3527 13.4297C14.4105 13.1734 14.5244 12.933 14.6858 12.726C14.8142 12.5586 14.9445 12.3927 15.0691 12.2225C15.2387 11.9835 15.3704 11.7198 15.4593 11.4407C15.5107 11.2894 15.5382 11.1346 15.5836 10.9834C15.6807 10.6596 15.6735 10.3279 15.6453 9.99575C15.6337 9.85961 15.6214 9.72358 15.609 9.58745C15.5642 9.0873 15.7122 8.63893 15.9769 8.22261C16.1497 7.94167 16.3912 7.70936 16.6786 7.54766C16.8665 7.44369 17.0535 7.33788 17.2377 7.22774C17.4873 7.07384 17.7091 6.87878 17.894 6.65124C18.1735 6.3181 18.3767 5.92788 18.4895 5.50799C18.5239 5.38398 18.5674 5.26225 18.6024 5.13857C18.7841 4.49167 19.5716 3.75088 20.4127 3.68167C20.6263 3.66402 20.8382 3.62405 21.0506 3.59492C21.2509 3.57023 21.4443 3.50589 21.6194 3.40582C21.7947 3.30575 21.9482 3.17189 22.0713 3.01192C22.1927 2.85911 22.318 2.70867 22.4286 2.54817C22.8129 1.99084 23.3593 1.70914 24.0121 1.60799C24.3027 1.56283 24.5864 1.61611 24.8701 1.67904C25.1099 1.73221 25.352 1.77499 25.5946 1.81279C25.9257 1.86445 26.2308 1.77283 26.5158 1.61265C26.7129 1.50185 26.9063 1.38293 27.0931 1.25535C27.6936 0.844884 28.3442 0.787266 29.0307 0.9677C29.1959 1.01622 29.3527 1.08954 29.4959 1.18506C29.6813 1.30095 29.8632 1.42246 30.0499 1.53629C30.2932 1.67709 30.5563 1.78052 30.8304 1.8429C30.9819 1.88145 31.1347 1.89543 31.2859 1.92737C31.6451 2.00362 32.0006 1.95889 32.3556 1.89467C32.586 1.85265 32.8158 1.79427 33.0515 1.80867C33.7434 1.85102 34.3301 2.11062 34.7604 2.67098C34.8862 2.83485 34.9948 3.01203 35.1126 3.18218C35.2944 3.44135 35.5179 3.66878 35.7737 3.85528C35.9082 3.95535 36.053 4.03506 36.1897 4.12875C36.4578 4.31319 36.7637 4.40795 37.0771 4.48073C37.1875 4.50629 37.2977 4.53196 37.4084 4.55524C38.0443 4.68878 38.4985 5.07066 38.8434 5.60254C39.0021 5.84719 39.0666 6.12337 39.1237 6.40398C39.1671 6.64182 39.2228 6.87727 39.2906 7.10925C39.3527 7.27311 39.4261 7.43243 39.5105 7.586C39.5404 7.64914 39.574 7.71055 39.6063 7.77272C39.6155 7.79394 39.6266 7.81431 39.6392 7.83369C39.7025 7.91709 39.771 7.99669 39.831 8.08246C40.004 8.31965 40.2145 8.52683 40.4543 8.696C40.561 8.77506 40.6675 8.85456 40.7769 8.92983C41.2314 9.24196 41.4862 9.68611 41.6312 10.206C41.7361 10.5823 41.7069 10.9543 41.6191 11.3289C41.5713 11.5338 41.5384 11.7424 41.506 11.9504C41.4771 12.1558 41.4839 12.3646 41.5258 12.5677C41.5297 12.5788 41.5318 12.5904 41.5322 12.6021C41.5082 12.7748 41.5913 12.9289 41.6179 13.0928C41.6662 13.3898 41.7956 13.6572 41.9475 13.9139C42.0331 14.0584 42.1196 14.2022 42.2057 14.3464C42.4479 14.7521 42.5014 15.1954 42.4619 15.6564L42.4621 15.6567Z" fill="white"/>
<path d="M36.4799 14.9866C36.4775 10.5072 32.8415 6.89649 28.4127 6.87776C23.9014 6.85891 20.2784 10.5376 20.2709 14.9704C20.2636 19.4031 23.8708 23.0891 28.3733 23.0909C32.8397 23.0927 36.4796 19.4534 36.4799 14.9866ZM28.3553 22.4357C24.2254 22.426 20.921 19.056 20.9264 14.9789C20.9294 13.0041 21.7157 11.1111 23.1125 9.71509C24.5094 8.31895 26.4028 7.53397 28.3778 7.53202C32.548 7.53906 35.8311 10.9462 35.8252 14.9957C35.8194 19.0365 32.5347 22.4455 28.3553 22.4357Z" fill="white"/>
<path d="M36.9163 9.9819L36.5084 10.1236C36.5224 10.171 36.5309 10.2046 36.5421 10.2375C36.6053 10.422 36.6723 10.6053 36.7313 10.7912C36.7393 10.8228 36.7566 10.8511 36.7808 10.873C36.8049 10.8948 36.835 10.909 36.8672 10.9138C37.4534 11.0624 38.0383 11.2157 38.6232 11.3677C38.6629 11.3779 38.7019 11.3904 38.7412 11.4018C38.7417 11.4107 38.7423 11.4197 38.7428 11.4287C38.5495 11.4965 38.3569 11.5666 38.1625 11.6316C37.9648 11.6974 37.7712 11.7781 37.5652 11.8298L37.4873 11.6369L37.076 11.7817L37.4125 12.7503L37.8255 12.6065L37.7415 12.3428C38.2588 12.1601 38.7685 11.9832 39.2828 11.8084C39.3196 11.9027 39.3503 11.981 39.3841 12.0672L39.795 11.9247C39.7835 11.884 39.7758 11.8503 39.7647 11.818C39.7011 11.6335 39.6311 11.451 39.5749 11.2644C39.5659 11.2274 39.5458 11.1939 39.5173 11.1685C39.4888 11.143 39.4533 11.1269 39.4155 11.1221C38.8206 10.9762 38.2269 10.8258 37.6327 10.6764C37.5992 10.6681 37.5663 10.6568 37.5332 10.6469L37.5315 10.6193L38.7247 10.2057C38.754 10.2734 38.7782 10.3294 38.8063 10.3945L39.2182 10.2518L38.8871 9.29883L38.4753 9.44233C38.5014 9.53135 38.5238 9.60825 38.5489 9.69403L37.0087 10.2274L36.9163 9.9819Z" fill="white"/>
<path d="M35.029 7.46661L34.6896 7.73249C34.7112 7.76379 34.7272 7.78989 34.746 7.81394C34.8705 7.97423 34.9992 8.13159 35.1188 8.29535C35.1362 8.32285 35.1615 8.34441 35.1915 8.3573C35.2214 8.37007 35.2546 8.37365 35.2865 8.36726C35.469 8.34928 35.6522 8.33737 35.835 8.32329C36.1929 8.29535 36.5509 8.2674 36.9087 8.23946C37.0115 8.23156 37.1147 8.2269 37.2177 8.22072L37.2281 8.24639L36.2469 9.01231C36.1942 8.95166 36.1518 8.90271 36.105 8.84888L35.7625 9.11683L36.3945 9.92715L36.738 9.65856L36.5739 9.43318C37.0051 9.09527 37.4289 8.76137 37.8606 8.43018L38.0379 8.64452L38.3795 8.37668C38.356 8.34181 38.3402 8.3156 38.3216 8.29166C38.1949 8.12813 38.0662 7.96621 37.9415 7.80116C37.9259 7.77722 37.9035 7.75827 37.8771 7.7469C37.8508 7.73553 37.8218 7.73217 37.7936 7.73726C37.2262 7.78795 36.6584 7.83408 36.0906 7.88109C36.0027 7.88834 35.9146 7.89202 35.8269 7.89733C35.8226 7.88932 35.8184 7.8813 35.8143 7.87329C36.1461 7.61455 36.4762 7.35332 36.8144 7.09448L36.9505 7.2473L37.2939 6.97957C37.086 6.71304 36.8828 6.45289 36.673 6.18408L36.3275 6.45311C36.3846 6.53109 36.4319 6.59596 36.4833 6.66592L35.1963 7.66989L35.029 7.46661Z" fill="white"/>
<path d="M17.4693 11.8301C17.9918 12.0095 18.5047 12.1778 19.0156 12.3594L18.9389 12.6075L19.3524 12.7473C19.4684 12.4066 19.5808 12.0761 19.6969 11.7356C19.5537 11.6871 19.4222 11.6423 19.2842 11.5954C19.2504 11.6824 19.2201 11.7604 19.1872 11.8452L17.6409 11.3188C17.7513 10.976 17.864 10.6466 17.9822 10.3126L19.5319 10.84C19.5047 10.9273 19.4809 11.0038 19.4533 11.092L19.8685 11.2332C19.985 10.8891 20.097 10.5584 20.2114 10.2204L19.7978 10.0796L19.7053 10.3309L18.1562 9.80343C18.1846 9.71159 18.2083 9.63491 18.2353 9.5474L17.8222 9.40845C17.5352 10.2527 17.2509 11.089 16.9635 11.9345L17.375 12.0747C17.4083 11.9884 17.4373 11.9135 17.4693 11.8301Z" fill="white"/>
<path d="M28.7788 5.34448C28.9696 5.3565 29.1605 5.37274 29.3515 5.3748C29.525 5.37783 29.6941 5.31935 29.8286 5.20964C29.9632 5.09993 30.0544 4.94614 30.0863 4.77545C30.1322 4.55007 30.0937 4.34841 29.911 4.1904C29.8999 4.1787 29.8905 4.16549 29.8831 4.1513C29.9422 4.09736 29.9971 4.03888 30.0472 3.9765C30.1607 3.81112 30.1675 3.62332 30.1242 3.43639C30.0468 3.10152 29.7798 2.88209 29.418 2.85307C29.0563 2.82404 28.6941 2.80227 28.3321 2.77823C28.2902 2.77541 28.2482 2.7778 28.2003 2.7778C28.1787 2.92022 28.1706 3.06437 28.176 3.2083L28.4217 3.24177C28.3875 3.78957 28.3551 4.32448 28.3115 4.86415H28.0551C28.0466 5.00798 28.0383 5.14585 28.0299 5.28837C28.0681 5.29336 28.0905 5.29758 28.1132 5.2992C28.3351 5.31458 28.5569 5.33061 28.7788 5.34448ZM28.9656 3.27144C29.1106 3.28054 29.243 3.28087 29.3732 3.29906C29.5337 3.32159 29.6305 3.52856 29.5682 3.69697C29.5524 3.75393 29.5169 3.80343 29.4679 3.83657C29.4191 3.86982 29.3599 3.88455 29.3011 3.87827C29.1922 3.87361 29.0834 3.86365 28.9746 3.85541C28.9578 3.85184 28.9412 3.84686 28.9252 3.84058C28.9385 3.6505 28.9516 3.46563 28.9656 3.27144ZM28.8965 4.29783C29.0549 4.30801 29.194 4.31614 29.333 4.32664C29.3562 4.32946 29.3786 4.3365 29.3994 4.34744C29.5118 4.40105 29.5678 4.54823 29.5352 4.70159C29.5267 4.76592 29.4949 4.82484 29.4456 4.86707C29.3964 4.90931 29.3333 4.93195 29.2684 4.93043C29.1442 4.92621 29.0204 4.91408 28.8964 4.90444C28.8821 4.90011 28.8686 4.89393 28.856 4.88603C28.8691 4.6965 28.8823 4.50448 28.8965 4.29783Z" fill="white"/>
<path d="M32.7822 5.88923C32.6948 6.00912 32.6136 6.12468 32.5365 6.25031L33.4133 6.8527L33.6596 6.49259L33.4453 6.33349L33.9358 5.61988C33.9514 5.67165 33.9611 5.69613 33.9658 5.72179C34.0238 6.03241 34.0779 6.34378 34.1406 6.65342C34.1503 6.69078 34.1512 6.72988 34.1431 6.76757C34.1349 6.80526 34.1181 6.84046 34.0939 6.87057C34.0214 6.96598 33.9574 7.06779 33.8837 7.1762L34.5618 7.64179C34.6546 7.50652 34.7416 7.37959 34.8297 7.25114C34.8066 7.22927 34.7812 7.20977 34.7541 7.1932C34.7228 7.17717 34.6965 7.15313 34.6778 7.12356C34.659 7.094 34.6485 7.05988 34.6474 7.02479C34.5935 6.71353 34.5362 6.4027 34.4813 6.09154C34.4774 6.05721 34.4757 6.02266 34.4762 5.988C34.5322 5.97901 34.5777 5.9697 34.6238 5.96472C34.8721 5.93775 35.1213 5.91544 35.3687 5.88446C35.4984 5.86822 35.6255 5.84255 35.7323 5.96883L36.005 5.57093L35.3078 5.09255C35.2262 5.20984 35.1508 5.31392 35.0809 5.42158C35.0672 5.44475 35.0481 5.46414 35.025 5.478C35.002 5.49187 34.9758 5.49977 34.949 5.50085C34.6464 5.53345 34.3445 5.5719 34.0422 5.60721C34.0105 5.60797 33.9788 5.60645 33.9471 5.60298L34.368 4.98956L34.5948 5.13132L34.8421 4.77165L33.9605 4.16699L33.7144 4.52764L33.917 4.67981C33.8012 4.89295 33.0528 5.96493 32.9821 6.01887L32.7822 5.88923Z" fill="white"/>
<path d="M18.8492 8.65155L20.1504 9.5562L20.0058 9.77931L20.364 10.0284L21.5064 8.38317L20.7743 7.87479L20.4747 8.30671C20.6 8.39508 20.7166 8.47739 20.8429 8.56664C20.713 8.75313 20.5893 8.93053 20.4603 9.11606L19.9653 8.77079L20.247 8.35349L19.8676 8.09043C19.7685 8.22992 19.6744 8.36194 19.5756 8.50111L19.1523 8.20631C19.2842 8.01537 19.4033 7.83537 19.5351 7.65949C19.6415 7.73053 19.7341 7.79248 19.8319 7.85779L20.1295 7.42577L19.4336 6.9436L18.2922 8.58797L18.6875 8.86317L18.8492 8.65155Z" fill="white"/>
<path d="M26.3508 5.5605C26.7857 5.56213 27.1119 5.41354 27.3341 5.15177C27.8213 4.57863 27.727 3.67689 27.1308 3.2074C26.9007 3.02047 26.6082 2.9283 26.3125 2.94953C26.017 2.97076 25.7406 3.10375 25.5397 3.32166C25.1639 3.71718 25.0851 4.36451 25.3577 4.87104C25.5883 5.29938 25.9459 5.53635 26.3508 5.5605ZM25.8533 3.77144C25.8958 3.69314 25.9551 3.62523 26.0269 3.5726C26.0987 3.51996 26.1814 3.4839 26.2689 3.467C26.3564 3.45022 26.4464 3.45292 26.5327 3.47502C26.619 3.49722 26.6993 3.53827 26.7678 3.59512C26.9236 3.72975 27.0309 3.91191 27.0732 4.11336C27.1156 4.31491 27.0906 4.52469 27.0023 4.71076C26.9602 4.79697 26.8981 4.87202 26.8214 4.92975C26.7447 4.98736 26.6553 5.02592 26.5606 5.04238C26.4661 5.05873 26.3689 5.05245 26.2773 5.02397C26.1856 4.99549 26.102 4.94567 26.0333 4.87852C25.9415 4.79079 25.8688 4.68509 25.8199 4.5679C25.7708 4.45083 25.7465 4.32476 25.7486 4.19783C25.7451 4.04892 25.7812 3.90173 25.8533 3.77144Z" fill="white"/>
<path d="M30.9614 5.68699C31.1722 5.84566 31.4311 5.92699 31.6948 5.91714C31.9585 5.90739 32.2106 5.80699 32.4089 5.63306C32.4563 5.59028 32.4952 5.53829 32.544 5.48403L32.1005 5.1836C32.0653 5.21306 32.0421 5.23375 32.0175 5.25281C31.6549 5.53559 31.178 5.38299 31.0453 4.94198C31.0018 4.79923 30.9973 4.6475 31.032 4.50248C31.0967 4.22642 31.2401 4.00624 31.5022 3.88115C31.7904 3.7436 32.1638 3.85245 32.2753 4.12819C32.2976 4.191 32.3363 4.24656 32.3876 4.28912C32.4388 4.33169 32.5006 4.35963 32.5664 4.36992C32.5928 4.3762 32.6179 4.38768 32.6442 4.39559C32.7024 4.41313 32.7607 4.43014 32.8266 4.44952C32.8853 4.27212 32.94 4.10728 32.9967 3.93595C32.908 3.90595 32.8317 3.87681 32.7535 3.8544C32.7197 3.84616 32.688 3.83111 32.6603 3.8101C32.6326 3.78909 32.6095 3.76255 32.5924 3.73234C32.5263 3.61613 32.4286 3.52115 32.3107 3.45833C32.1585 3.37288 31.9892 3.32284 31.8151 3.3119C31.641 3.30086 31.4667 3.32912 31.3051 3.39465C30.7833 3.59837 30.4423 4.13988 30.4668 4.72223C30.4833 5.11894 30.6399 5.44743 30.9614 5.68699Z" fill="white"/>
<path d="M22.0245 7.78311C22.5536 7.67145 22.9918 7.14531 22.9223 6.54239C22.918 6.44394 22.8887 6.3482 22.8373 6.26405L22.3619 6.48704C22.3692 6.52906 22.374 6.55581 22.3782 6.58267C22.3966 6.67711 22.3918 6.7747 22.3642 6.86697C22.3366 6.95924 22.287 7.0434 22.2197 7.11217C22.1524 7.18105 22.0694 7.23249 21.9778 7.26217C21.8863 7.29184 21.7888 7.29888 21.6939 7.28264C21.2789 7.22643 20.9284 6.81986 20.9328 6.40062C20.9367 6.03 21.2493 5.72935 21.619 5.79953C21.656 5.80852 21.6947 5.80733 21.7311 5.79618C21.7673 5.78502 21.8002 5.76423 21.8256 5.73607C21.8937 5.67184 21.9676 5.61401 22.0379 5.55217C22.0603 5.53235 22.0794 5.50874 22.1033 5.4834L21.7522 5.07812C21.6739 5.14451 21.6048 5.20105 21.5383 5.26051C21.5011 5.29484 21.4526 5.31412 21.402 5.31444C21.2727 5.3126 21.1447 5.34163 21.0288 5.39924C20.8194 5.50831 20.649 5.67986 20.5415 5.89007C20.3076 6.36715 20.3607 6.82809 20.6713 7.24657C21.0062 7.69798 21.4617 7.90159 22.0245 7.78311Z" fill="white"/>
<path d="M23.0715 4.91535L22.9353 4.6174L23.2257 4.47628C23.4689 4.97665 23.7067 5.46596 23.9476 5.96177L23.7157 6.08643C23.7833 6.22094 23.8397 6.35091 23.9114 6.47578C24.0832 6.39184 24.2418 6.31668 24.3987 6.23816C24.5537 6.16051 24.7154 6.09531 24.8662 6.00314L24.6753 5.6165L24.4332 5.72773L23.7091 4.23834L24.0391 4.08195L24.1878 4.3722L24.6615 4.14065L24.3315 3.46289L22.2701 4.46654L22.6007 5.14419L23.0715 4.91535Z" fill="white"/>
<path d="M29.8803 25.5172L30.1363 25.4973V25.114C30.0898 25.114 30.0594 25.1129 30.0289 25.114C29.8652 25.1208 29.7014 25.1325 29.5378 25.1337C29.5052 25.1319 29.4728 25.1391 29.4439 25.1545C29.4152 25.1699 29.3911 25.193 29.3747 25.2211C29.2248 25.4402 29.0703 25.6558 28.9168 25.8722C28.8977 25.8991 28.8745 25.9232 28.8491 25.9535C28.8242 25.9268 28.8076 25.9105 28.7925 25.8928C28.6131 25.6817 28.4329 25.4713 28.2557 25.2583C28.2412 25.2379 28.2216 25.2218 28.1988 25.2114C28.1761 25.2011 28.1511 25.1969 28.1262 25.1994C28.0054 25.2063 27.8842 25.2058 27.7634 25.2116C27.6835 25.2155 27.6038 25.2247 27.5252 25.2314C27.5252 25.3093 27.5225 25.3717 27.526 25.4337C27.5294 25.494 27.5393 25.5539 27.5463 25.6142H27.7899C27.7999 25.8605 27.8096 26.0997 27.8196 26.3431L27.5649 26.3647C27.5719 26.4968 27.5781 26.6188 27.585 26.7508L28.4455 26.7121V26.3342L28.2677 26.3183C28.26 26.1679 28.2527 26.0238 28.2452 25.8795L28.2736 25.8687L28.8789 26.5579C28.9769 26.4237 29.0657 26.3014 29.1551 26.1797C29.2435 26.0594 29.3271 25.9351 29.4214 25.8192L29.4475 25.8295C29.4537 25.9751 29.4601 26.1208 29.4666 26.2701L29.3018 26.2909C29.3093 26.4191 29.3164 26.5412 29.3241 26.6749L30.1812 26.6358V26.2451H29.9115C29.9011 25.9987 29.891 25.7626 29.8803 25.5172Z" fill="white"/>
<path d="M30.8905 24.9166C30.8725 24.9336 30.8526 24.9484 30.8258 24.971C30.8083 24.919 30.8056 24.8632 30.818 24.8098C30.8304 24.7564 30.8574 24.7076 30.8959 24.6687C30.9822 24.5775 31.0911 24.5106 31.2114 24.4746C31.3409 24.4317 31.472 24.3934 31.602 24.3522C31.6527 24.3361 31.7026 24.3176 31.7565 24.2989C31.7141 24.1499 31.675 24.0118 31.6306 23.8562C31.5081 23.8901 31.3996 23.9197 31.2917 23.9509C31.2845 23.9527 31.2778 23.9558 31.2719 23.9602C31.2661 23.9646 31.2611 23.9701 31.2573 23.9764C31.2693 24.0612 31.1965 24.0568 31.1517 24.0736C31.0035 24.1232 30.864 24.1956 30.7382 24.2883C30.4849 24.4886 30.361 24.7492 30.4238 25.0694C30.4775 25.3248 30.5454 25.5768 30.6272 25.8246C30.6607 25.9202 30.7128 26.0082 30.7805 26.0836C31.0989 26.4514 31.6453 26.3675 31.9292 26.1087C32.1963 25.8653 32.2583 25.4956 32.0931 25.1424C32.0449 25.0317 31.9704 24.9345 31.8759 24.8593C31.7816 24.784 31.6702 24.7331 31.5516 24.7108C31.433 24.6885 31.3107 24.6957 31.1955 24.7315C31.0802 24.7675 30.9756 24.8309 30.8905 24.9166ZM31.3923 25.9283C31.1765 25.9338 30.9813 25.7336 30.98 25.5056C30.9809 25.4014 31.0223 25.3017 31.0953 25.2274C31.1682 25.1531 31.2671 25.11 31.3711 25.1071C31.582 25.1066 31.7466 25.2969 31.7487 25.5436C31.751 25.5923 31.7435 25.641 31.7267 25.687C31.7099 25.7328 31.6843 25.7748 31.651 25.8105C31.6179 25.8464 31.5779 25.8752 31.5334 25.8953C31.4889 25.9156 31.4409 25.9267 31.3922 25.9282L31.3923 25.9283Z" fill="white"/>
<path d="M36.2517 23.1499L35.7802 22.5881L35.9388 22.4384L35.6917 22.1455L35.0211 22.7105L35.2692 23.0042L35.4389 22.8744L35.5625 23.0231L35.0498 23.4546C35.0062 23.4006 34.9685 23.3541 34.9239 23.2987L35.0791 23.1665C34.9929 23.0636 34.9143 22.9698 34.8308 22.8702L34.1595 23.4351C34.2456 23.5376 34.3247 23.6319 34.4067 23.7292L34.5868 23.5924L35.0593 24.1555L34.8942 24.3093C34.9797 24.4111 35.057 24.5028 35.1409 24.6027L35.8121 24.0377C35.7242 23.9334 35.6452 23.8399 35.5639 23.7432C35.5035 23.7899 35.4551 23.8271 35.3989 23.8706L35.2418 23.6804L35.7557 23.2486L35.9108 23.4393L35.7559 23.5838L36.0032 23.8775L36.6728 23.3125L36.4271 23.0193L36.2517 23.1499Z" fill="white"/>
<path d="M34.2782 24.6776C34.1658 24.4594 34.056 24.2467 33.9448 24.0311L34.0997 23.9345L33.9208 23.594C33.7727 23.6706 33.6366 23.7457 33.4961 23.8113C33.4641 23.8242 33.4362 23.8456 33.4155 23.8732C33.3947 23.9007 33.3818 23.9334 33.3782 23.9677C33.3196 24.2979 33.2556 24.627 33.1928 24.9563C33.1839 24.989 33.1734 25.0212 33.1611 25.0528L32.9091 24.5651L33.0624 24.4676C33.0037 24.3542 32.9474 24.2458 32.8867 24.1285C32.6405 24.2564 32.4064 24.3779 32.1628 24.5043L32.3394 24.8434L32.5153 24.7691L32.8509 25.4185L32.6931 25.5174C32.7503 25.6381 32.8056 25.7471 32.8704 25.8553C33.0182 25.7789 33.151 25.704 33.2893 25.6416C33.3248 25.6272 33.3558 25.6033 33.3788 25.5726C33.4018 25.5418 33.4159 25.5054 33.4196 25.4672C33.4789 25.1452 33.5439 24.8242 33.6076 24.503C33.6168 24.4721 33.6279 24.4419 33.641 24.4125C33.7297 24.5823 33.8123 24.7291 33.8819 24.8842L33.7228 24.9835L33.8999 25.3229L34.6236 24.9458C34.5598 24.8248 34.504 24.7187 34.4469 24.6102L34.2782 24.6776Z" fill="white"/>
<path d="M19.3642 20.5867L19.7018 20.415C19.4365 19.8923 19.1777 19.3826 18.9169 18.8687C18.8003 18.9203 18.6867 18.9787 18.5767 19.0433C18.6098 19.1153 18.6367 19.1742 18.6687 19.2436C18.5447 19.2997 18.4337 19.3568 18.3178 19.4007C18.122 19.475 17.9688 19.4242 17.8474 19.2544C17.8231 19.2205 17.8006 19.1853 17.7723 19.1432L17.435 19.3177C17.4784 19.4023 17.5125 19.4723 17.5499 19.5406C17.6113 19.6642 17.7124 19.7638 17.837 19.8231C17.9617 19.8825 18.1027 19.8984 18.2374 19.8682C18.4178 19.8331 18.5919 19.7723 18.7548 19.6874C18.7915 19.6694 18.8297 19.6546 18.8723 19.6361C18.9378 19.7651 19.0016 19.8791 19.0558 20.0063L18.3941 20.3415L18.2909 20.1489C18.1001 20.2222 18.0028 20.2787 17.956 20.3433L18.3684 21.1575C18.4872 21.1078 18.6021 21.0498 18.7126 20.9837L18.5984 20.7376C18.8236 20.6226 19.0358 20.5112 19.2567 20.4066L19.3642 20.5867Z" fill="white"/>
<path d="M24.7133 24.8508C24.6673 24.968 24.5509 25.0003 24.4585 25.0611C24.4435 25.065 24.4275 25.0632 24.4139 25.0561C24.3709 25.0399 24.3288 25.0214 24.2785 25.0005C24.3537 24.8034 24.4257 24.6152 24.5016 24.4163L23.8693 24.1699C23.8213 24.2958 23.7776 24.4101 23.7319 24.5296C23.7765 24.5488 23.8084 24.5621 23.8397 24.5763C23.8739 24.5915 23.9076 24.6078 23.9485 24.6269C23.8578 24.8589 23.7718 25.0792 23.6812 25.3114L23.4563 25.2322L23.3166 25.5925L24.0969 25.896L24.2353 25.5395L24.0958 25.4676C24.1208 25.4073 24.1437 25.3514 24.1656 25.2988C24.2122 25.2982 24.2575 25.3141 24.2934 25.3438C24.3294 25.3734 24.3537 25.4148 24.3621 25.4606C24.4178 25.6433 24.4841 25.8227 24.5496 26.0023C24.5593 26.0388 24.5814 26.0708 24.6122 26.0927C24.7207 26.1431 24.8339 26.1826 24.9544 26.2297L25.0944 25.8687C25.0398 25.8468 24.9958 25.8322 24.9546 25.8115C24.9259 25.8009 24.9012 25.7818 24.8838 25.7567C24.8227 25.6189 24.7677 25.4783 24.7075 25.3311C24.8484 25.2499 24.975 25.1736 25.1053 25.1046C25.1378 25.0953 25.1724 25.0968 25.204 25.1089C25.2586 25.1233 25.3113 25.1449 25.3708 25.1659C25.4188 25.0414 25.462 24.9303 25.5091 24.8085L24.8344 24.5457C24.7906 24.6558 24.7517 24.7535 24.7133 24.8508Z" fill="white"/>
<path d="M39.7892 15.86C39.6877 15.8558 39.5862 15.859 39.4846 15.8586C39.3141 15.858 39.288 15.8384 39.2354 15.6734C39.2116 15.599 39.1878 15.5247 39.164 15.4504C39.1579 15.4319 39.1514 15.4135 39.1446 15.3952C39.1356 15.3669 39.1177 15.3423 39.0936 15.325C39.0694 15.3077 39.0403 15.2987 39.0107 15.2993C38.9809 15.2988 38.9518 15.3082 38.9279 15.326C38.904 15.3438 38.8867 15.3689 38.8785 15.3976C38.8422 15.5006 38.8102 15.6052 38.7751 15.7085C38.7331 15.8325 38.7 15.857 38.572 15.8583C38.4626 15.8597 38.3532 15.8567 38.244 15.8597C38.2105 15.8557 38.1767 15.8635 38.1484 15.8818C38.1203 15.9002 38.0994 15.9278 38.0894 15.9601C38.069 16.0247 38.0883 16.077 38.1573 16.131C38.2433 16.1986 38.3311 16.2632 38.4179 16.3303C38.5245 16.4128 38.5388 16.4545 38.5007 16.582C38.4685 16.6904 38.4307 16.7972 38.3998 16.906C38.3862 16.9369 38.384 16.9717 38.3937 17.004C38.4036 17.0363 38.4247 17.064 38.4533 17.082C38.4794 17.0999 38.5107 17.1082 38.5422 17.1057C38.5737 17.1031 38.6033 17.0899 38.6262 17.0682C38.6921 17.0196 38.759 16.972 38.8251 16.9235C39.0015 16.794 39.0209 16.7936 39.1943 16.9179C39.2609 16.9659 39.3267 17.0149 39.3945 17.0609C39.4665 17.1097 39.5234 17.1116 39.5784 17.0711C39.6333 17.0306 39.6453 16.9782 39.6214 16.8917C39.616 16.8729 39.6098 16.8544 39.6037 16.8358C39.5762 16.7505 39.5471 16.6656 39.5213 16.5796C39.4861 16.4619 39.5019 16.4131 39.6001 16.3361C39.689 16.2662 39.7795 16.1983 39.8698 16.1297C39.8898 16.1179 39.9068 16.1016 39.9194 16.0818C39.9319 16.0622 39.9396 16.0399 39.9417 16.0168C39.9433 15.9961 39.9406 15.9753 39.9336 15.9558C39.9267 15.9363 39.9155 15.9185 39.9011 15.9037C39.8866 15.8888 39.8692 15.8773 39.8499 15.8698C39.8305 15.8622 39.8099 15.859 39.7892 15.86Z" fill="white"/>
<path d="M17.8544 16.872C17.9383 16.9289 18.0192 16.9902 18.1024 17.0481C18.1911 17.1098 18.247 17.1157 18.3047 17.0699C18.376 17.0136 18.3654 16.9425 18.3406 16.8679C18.3097 16.7755 18.2808 16.6825 18.2522 16.5892C18.2111 16.4546 18.2244 16.4136 18.3354 16.3282C18.4253 16.2593 18.5172 16.1934 18.6048 16.1219C18.6887 16.0535 18.6977 15.9612 18.6228 15.903C18.5849 15.8771 18.5402 15.8626 18.4943 15.8611C18.3893 15.8552 18.2837 15.8599 18.1784 15.8587C18.049 15.8571 18.0171 15.8338 17.9751 15.7094C17.9402 15.6061 17.9082 15.5017 17.8728 15.3985C17.8642 15.3703 17.8469 15.3455 17.8234 15.3277C17.7999 15.3098 17.7713 15.2999 17.7417 15.2993C17.7123 15.2988 17.6832 15.3077 17.6591 15.3246C17.6349 15.3415 17.6167 15.3655 17.607 15.3935C17.5973 15.4189 17.589 15.4449 17.5804 15.4708C17.5511 15.5597 17.5222 15.6486 17.4927 15.7374C17.4839 15.7739 17.4625 15.8061 17.4322 15.8283C17.402 15.8506 17.3648 15.8613 17.3274 15.8588C17.2689 15.8584 17.2104 15.8588 17.1518 15.8588V15.8595H16.9763C16.9429 15.856 16.9093 15.8636 16.8806 15.8809C16.8519 15.8981 16.8296 15.9244 16.8169 15.9553C16.7909 16.0193 16.8135 16.0752 16.8888 16.1352C16.9716 16.2003 17.0567 16.2628 17.14 16.3269C17.2564 16.4159 17.2684 16.4547 17.2236 16.5979C17.1921 16.6984 17.1556 16.7975 17.1299 16.8993C17.1179 16.9434 17.1197 16.9901 17.1353 17.0331C17.17 17.1121 17.2623 17.1286 17.3437 17.0739C17.4377 17.011 17.5267 16.941 17.6195 16.8761C17.6508 16.8458 17.6926 16.8286 17.7361 16.8278C17.7796 16.8271 17.8219 16.8429 17.8544 16.872Z" fill="white"/>
<path d="M38.4612 20.1436C38.2338 20.025 38.0137 19.9129 37.7959 19.7824L37.9218 19.5577L38.1828 19.6846L38.386 19.3028L37.7981 18.9878L36.9272 20.612C37.1284 20.72 37.3168 20.8255 37.517 20.9257L37.7195 20.546L37.4654 20.4022L37.5867 20.1804C37.8135 20.3023 38.034 20.4138 38.2484 20.5396C38.2109 20.618 38.1796 20.6834 38.1461 20.7534L38.484 20.934L38.9327 20.098L38.593 19.9174C38.5467 19.9972 38.5061 20.0666 38.4612 20.1436Z" fill="white"/>
<path d="M37.5946 21.591C37.5341 21.5442 37.4822 21.5044 37.4304 21.4642C37.31 21.371 37.1943 21.271 37.0683 21.1859C36.848 21.0373 36.6382 21.0513 36.4321 21.2194C36.2886 21.3356 36.1778 21.4871 36.1104 21.659C36.0587 21.7758 36.0317 21.902 36.0309 22.0297L36.3176 22.0912C36.3325 22.0448 36.3423 22.0115 36.3535 21.9789C36.4013 21.825 36.4923 21.6881 36.6156 21.5844C36.7272 21.4957 36.8201 21.5065 36.9234 21.6115C36.867 21.6719 36.816 21.7254 36.766 21.7801C36.657 21.8875 36.5773 22.021 36.5346 22.1679C36.5105 22.2492 36.5108 22.3357 36.5356 22.4167C36.5604 22.4977 36.6085 22.5696 36.674 22.6234C36.736 22.6844 36.8151 22.7249 36.9008 22.7396C36.9865 22.7542 37.0745 22.7423 37.1531 22.7053C37.237 22.6646 37.3139 22.6108 37.3809 22.546C37.4921 22.443 37.5594 22.3012 37.569 22.1499C37.6032 22.1504 37.637 22.1427 37.6678 22.1275C37.7897 21.9818 37.9064 21.8314 38.0297 21.6761L37.7286 21.4358L37.5946 21.591ZM37.2619 22.1424C37.2344 22.1978 37.1983 22.2485 37.1551 22.2928C37.1284 22.3244 37.0905 22.3445 37.0495 22.3489C37.0083 22.3533 36.9671 22.3416 36.9344 22.3164C36.9015 22.2911 36.8799 22.2541 36.8736 22.2132C36.8674 22.1723 36.8773 22.1306 36.9011 22.0968C36.9232 22.0604 36.9482 22.0258 36.9761 21.9936C37.0264 21.9297 37.078 21.8666 37.1295 21.8038C37.1381 21.7976 37.1474 21.7928 37.1574 21.7894C37.3349 21.9077 37.3514 21.958 37.2615 22.1425L37.2619 22.1424Z" fill="white"/>
<path d="M19.4837 21.5485L20.1832 22.4328C20.3055 22.3466 20.4106 22.2384 20.4934 22.1139C20.5605 22.0125 20.5991 21.8949 20.605 21.7735C20.6119 21.4527 20.4578 21.217 20.1923 21.0617C19.6742 20.7583 19.1026 21.1466 18.9926 21.6025C18.972 21.6856 18.9661 21.7717 18.975 21.857C19.0179 22.2237 19.3304 22.5678 19.7069 22.6657L19.8327 22.3775C19.7913 22.349 19.7544 22.3276 19.7222 22.3005C19.6447 22.2356 19.5657 22.1719 19.4944 22.1004C19.4215 22.028 19.377 21.9318 19.3691 21.8294C19.3591 21.7765 19.3646 21.7219 19.385 21.6721C19.4054 21.6223 19.4396 21.5794 19.4837 21.5485ZM20.1445 21.4756C20.2585 21.6195 20.2552 21.7448 20.1233 21.8807L19.7292 21.381C19.8802 21.2904 20.0274 21.3275 20.1445 21.4756Z" fill="white"/>
<path d="M26.3183 24.9356C26.2117 24.9352 26.1061 24.9563 26.0078 24.9975C25.9094 25.0387 25.8203 25.0991 25.7456 25.1752C25.6709 25.2514 25.6122 25.3416 25.5729 25.4407C25.5336 25.5399 25.5145 25.6458 25.5168 25.7524C25.5168 26.1772 25.8221 26.5459 26.3484 26.5496C26.8869 26.5534 27.1432 26.112 27.143 25.742C27.1462 25.2894 26.7889 24.9399 26.3183 24.9356ZM26.3282 26.1477C26.2773 26.1488 26.2266 26.1396 26.1795 26.1204C26.1323 26.1013 26.0894 26.0728 26.0537 26.0367C26.0178 26.0005 25.9897 25.9574 25.971 25.91C25.9524 25.8626 25.9436 25.8118 25.9453 25.761C25.9434 25.5164 26.1084 25.3346 26.3314 25.3358C26.3824 25.3328 26.4335 25.3406 26.4813 25.3588C26.529 25.3771 26.5723 25.4053 26.6083 25.4417C26.6443 25.4778 26.6721 25.5215 26.6898 25.5693C26.7077 25.6173 26.715 25.6684 26.7115 25.7194C26.7087 26.0062 26.5061 26.163 26.3282 26.1478V26.1477Z" fill="white"/>
<path d="M22.5782 23.4653C22.1683 23.4557 21.7691 23.8017 21.7624 24.2912C21.7564 24.7164 22.1532 25.0897 22.5966 25.0925C23.0273 25.0951 23.3938 24.7216 23.396 24.2773C23.3982 23.8395 23.0266 23.4758 22.5782 23.4653ZM22.564 24.6842C22.5142 24.684 22.4649 24.6739 22.4192 24.6545C22.3733 24.6351 22.3318 24.6067 22.2972 24.5709C22.2624 24.5353 22.2352 24.4931 22.2171 24.4467C22.1988 24.4004 22.1902 24.3509 22.1914 24.3012C22.1914 24.0707 22.3786 23.8696 22.594 23.8678C22.6942 23.8676 22.7904 23.9068 22.862 23.977C22.9335 24.0471 22.9746 24.1425 22.9765 24.2427C22.9753 24.4735 22.7793 24.6832 22.564 24.6842Z" fill="white"/>
<path d="M22.0934 23.1741C22.0622 23.1373 22.0286 23.1026 21.9927 23.0705C21.9244 23.0184 21.8734 22.9469 21.8463 22.8655C21.7958 22.7378 21.7117 22.6261 21.6027 22.5426C21.356 22.3346 21.0804 22.2803 20.7854 22.4093C20.6405 22.4665 20.5155 22.5649 20.4259 22.6924C20.3364 22.8199 20.2861 22.9707 20.2813 23.1265C20.2503 23.6269 20.7324 24.0542 21.2296 23.9768C21.3208 23.9709 21.4077 23.9354 21.4769 23.8756C21.4417 23.8199 21.4087 23.7675 21.375 23.7151C21.3397 23.66 21.3037 23.6051 21.272 23.5562C21.1995 23.5692 21.1261 23.5763 21.0525 23.5771C21.0008 23.5737 20.9503 23.5597 20.9042 23.5362C20.858 23.5126 20.8172 23.4798 20.7843 23.4399C20.7513 23.3999 20.7268 23.3537 20.7123 23.304C20.6978 23.2543 20.6935 23.2021 20.6999 23.1507C20.7278 22.9244 20.9446 22.7468 21.1585 22.7752C21.2496 22.7896 21.3337 22.8331 21.3982 22.899C21.4627 22.965 21.5043 23.0499 21.5167 23.1413C21.5177 23.179 21.5293 23.2157 21.5502 23.2471C21.632 23.3293 21.7218 23.4035 21.8139 23.4856L22.0934 23.1741Z" fill="white"/>
<path d="M40.0954 10.7096C40.0502 10.6988 40.0081 10.6777 39.9724 10.6478C39.9023 10.5853 39.8581 10.4989 39.8485 10.4053C39.8389 10.312 39.8647 10.2183 39.9207 10.1428C39.9321 10.1276 39.9424 10.1117 39.9529 10.0965L39.8244 9.73145C39.6475 9.8652 39.5269 10.0152 39.5143 10.2296C39.4989 10.4657 39.5754 10.6986 39.7279 10.8796C39.8691 11.0523 40.0591 11.1123 40.2968 11.0953C40.2594 10.9862 40.2239 10.8959 40.1981 10.803C40.193 10.7786 40.1802 10.7565 40.1618 10.7397C40.1434 10.723 40.1201 10.7125 40.0954 10.7096Z" fill="white"/>
<path d="M30.2298 15.4376C30.0869 15.358 29.9397 15.2863 29.7889 15.2226C29.7153 15.1894 29.6361 15.1681 29.552 15.1387C29.5567 15.0571 29.5627 14.9796 29.5654 14.9021C29.5709 14.7416 29.4965 14.6655 29.3373 14.6553C29.2401 14.6512 29.1433 14.6388 29.0481 14.6181C28.6152 14.5142 28.257 14.2741 27.9263 13.9872C27.8696 13.9379 27.865 13.8981 27.9094 13.8218C27.9998 13.6668 28.0854 13.5079 28.1885 13.3618C28.5481 12.8644 28.9644 12.4104 29.4289 12.0092C29.7245 11.7476 30.0307 11.4988 30.3879 11.3219C30.4156 11.3076 30.4408 11.289 30.4628 11.2669C30.6209 11.1103 30.7805 10.9546 30.9347 10.7943C30.9655 10.7654 30.9905 10.7306 31.008 10.692C31.0254 10.6535 31.0352 10.6118 31.0364 10.5694C31.0377 10.5271 31.0306 10.485 31.0156 10.4453C31.0005 10.4058 30.9778 10.3695 30.9486 10.3387C30.7757 10.153 30.5958 9.97322 30.4108 9.79983C30.3491 9.7408 30.2667 9.70831 30.1813 9.7095C30.0959 9.7107 30.0144 9.74535 29.9543 9.80611C29.9253 9.8321 29.8984 9.8608 29.8708 9.88842C28.9239 10.8359 27.9769 11.7834 27.0299 12.7312C27.0086 12.7587 26.9817 12.7815 26.9512 12.7982C26.9205 12.815 26.8867 12.8253 26.8521 12.8283C26.7532 12.8351 26.661 12.8804 26.595 12.9542C26.3161 13.2332 26.0353 13.5103 25.7589 13.7917C25.7166 13.8314 25.6829 13.8794 25.6598 13.9327C25.6366 13.9859 25.6245 14.0433 25.6241 14.1012C25.6238 14.1593 25.6353 14.2168 25.6578 14.2703C25.6805 14.3238 25.7136 14.3721 25.7554 14.4122C25.9336 14.5985 26.1181 14.7787 26.3016 14.9597C26.3441 15.0063 26.3974 15.0417 26.4569 15.063C26.5162 15.0843 26.5799 15.0907 26.6424 15.0818C26.7558 15.0629 26.8075 15.1136 26.8514 15.2082C26.8094 15.2267 26.7709 15.2441 26.7319 15.2605C26.5495 15.331 26.3796 15.4302 26.2285 15.5542C26.1353 15.629 26.0606 15.7241 26.0099 15.8324C25.9593 15.9405 25.9342 16.0589 25.9364 16.1783C25.9393 17.4361 25.9376 18.6937 25.9381 19.9513C25.9371 19.9942 25.9411 20.0372 25.9501 20.0791C25.9592 20.1142 25.9777 20.1461 26.0038 20.1714C26.0298 20.1966 26.0623 20.2143 26.0976 20.2224C26.1329 20.2305 26.1699 20.2288 26.2043 20.2174C26.2387 20.206 26.2694 20.1854 26.2929 20.1578C26.3312 20.1127 26.3503 20.0543 26.3459 19.9953C26.345 19.8039 26.345 19.6125 26.3459 19.4212C26.3459 19.3883 26.3514 19.3553 26.3553 19.3133C26.3805 19.3223 26.4053 19.3325 26.4295 19.3438C26.697 19.482 26.9828 19.5813 27.2784 19.6384C27.3088 19.6455 27.3399 19.6493 27.3711 19.6499C27.4183 19.6511 27.4644 19.6355 27.5014 19.6059C27.5382 19.5763 27.5633 19.5346 27.5723 19.4882C27.5813 19.4417 27.5736 19.3937 27.5504 19.3525C27.5274 19.3112 27.4904 19.2795 27.4461 19.2629C27.4026 19.2465 27.3547 19.2424 27.3103 19.2281C27.1136 19.1651 26.9147 19.1077 26.7224 19.0333C26.63 18.9919 26.5436 18.9378 26.4658 18.8727C26.4248 18.8423 26.3922 18.802 26.371 18.7556C26.3498 18.7093 26.3406 18.6583 26.3441 18.6074C26.3491 18.42 26.3451 18.2324 26.3461 18.045C26.3483 18.0145 26.3524 17.9843 26.3585 17.9544C26.4821 18.015 26.5911 18.0756 26.7057 18.123C27.2151 18.3343 27.75 18.4067 28.2975 18.4067C28.3132 18.4071 28.3287 18.4061 28.3442 18.4039C28.3811 18.3981 28.4157 18.3822 28.4439 18.3577C28.4721 18.3333 28.4928 18.3013 28.5035 18.2656C28.5152 18.2322 28.5171 18.1961 28.5093 18.1616C28.5014 18.127 28.4841 18.0955 28.4591 18.0705C28.4375 18.0479 28.4115 18.0301 28.3825 18.0185C28.3536 18.0069 28.3224 18.0019 28.2913 18.0034C28.0965 17.9925 27.9012 17.9838 27.7074 17.9632C27.4116 17.9338 27.1219 17.8606 26.8476 17.7459C26.7132 17.6922 26.5887 17.6163 26.4794 17.5213C26.4457 17.4973 26.4172 17.4668 26.3954 17.4317C26.3736 17.3967 26.3589 17.3576 26.3522 17.3168C26.3436 17.1435 26.3496 16.9695 26.3496 16.7775C26.4515 16.8306 26.5345 16.8787 26.6217 16.9184C26.7103 16.9588 26.8015 16.9937 26.8938 17.0257C26.9822 17.0566 27.0719 17.084 27.1627 17.1068C27.2572 17.1308 27.3532 17.1491 27.4493 17.166C27.5452 17.1828 27.6419 17.197 27.7388 17.2079C27.8357 17.2187 27.9331 17.2265 28.0304 17.2316C28.124 17.2365 28.2179 17.2376 28.3115 17.2376C28.4092 17.2376 28.5068 17.2364 28.6043 17.2316C28.7018 17.2267 28.799 17.2187 28.896 17.2076C28.9929 17.1965 29.0893 17.1815 29.1851 17.1641C29.2811 17.1468 29.377 17.1275 29.4713 17.1036C29.562 17.0807 29.6522 17.0542 29.7403 17.023C29.8322 16.9907 29.9227 16.9537 30.0113 16.9133C30.0974 16.8741 30.1805 16.8281 30.2667 16.7839C30.2716 16.7964 30.2754 16.8094 30.2781 16.8225C30.2789 17.1819 30.2794 17.5411 30.2798 17.9005C30.2801 17.9398 30.2724 17.9788 30.2569 18.015C30.2416 18.0511 30.2189 18.0838 30.1904 18.1109C30.1324 18.1685 30.0689 18.2205 30.001 18.2661C29.8482 18.361 29.6823 18.4328 29.5085 18.4795C29.4337 18.5015 29.3576 18.519 29.2827 18.541C29.2443 18.5495 29.2093 18.5698 29.1828 18.599C29.1563 18.6283 29.1394 18.665 29.1346 18.7041C29.1286 18.738 29.1314 18.7729 29.1428 18.8054C29.1542 18.8378 29.1738 18.8668 29.1997 18.8895C29.2255 18.9121 29.2568 18.9278 29.2905 18.9349C29.3242 18.9419 29.3591 18.9402 29.392 18.9298C29.6676 18.8724 29.9329 18.7728 30.1781 18.6342C30.2058 18.6181 30.2359 18.606 30.2804 18.5844V19.9399C30.279 19.9789 30.2803 20.018 30.2842 20.0569C30.2907 20.1048 30.3146 20.1487 30.3511 20.1804C30.3877 20.212 30.4346 20.2292 30.4829 20.2289C30.5314 20.2286 30.5779 20.2106 30.614 20.1784C30.6502 20.1463 30.6733 20.102 30.6793 20.054C30.6831 20.0112 30.6842 19.9682 30.6828 19.9253V17.242C30.6828 16.8748 30.6802 16.5078 30.6837 16.1407C30.686 16.0506 30.67 15.961 30.6367 15.8773C30.6033 15.7934 30.5533 15.7174 30.4898 15.6536C30.413 15.5704 30.3256 15.4979 30.2298 15.4376ZM29.1341 15.0534C29.1366 15.0841 29.1364 15.1148 29.1334 15.1454C29.0764 15.4506 28.9246 15.7302 28.6996 15.9442C28.6771 15.9681 28.6497 15.9869 28.6193 15.9993C28.5888 16.0117 28.5561 16.0174 28.5233 16.0161C28.282 16.0119 28.0405 16.0145 27.7873 16.0145C27.6334 15.5753 27.3926 15.1716 27.0793 14.8274L27.6329 14.2746C28.0642 14.6451 28.5428 14.9513 29.1341 15.0534ZM30.2126 10.1649C30.3068 10.2604 30.4108 10.3658 30.5147 10.4715C30.539 10.4963 30.5623 10.5222 30.5916 10.5535C30.571 10.579 30.5538 10.6037 30.5334 10.6251C30.3553 10.8215 30.1489 10.9902 29.9212 11.1259C29.6116 11.3017 29.3434 11.5384 29.0802 11.7777C28.6429 12.1681 28.2464 12.6019 27.8966 13.0723C27.8211 13.1757 27.7509 13.2831 27.6846 13.3796C27.5642 13.2598 27.4464 13.1429 27.34 13.0371L30.2126 10.1649ZM26.5986 14.684C26.4086 14.4967 26.2169 14.3064 26.0389 14.1225C26.3386 13.8232 26.6269 13.5349 26.9193 13.2426C27.121 13.4137 27.3087 13.6006 27.4807 13.8016C27.4372 13.8804 26.7061 14.6157 26.5986 14.6842V14.684ZM30.2325 16.2453C30.1749 16.3186 30.1072 16.3835 30.0314 16.4377C29.8358 16.5679 29.6171 16.6591 29.387 16.7065C28.5798 16.8941 27.7777 16.8882 26.9846 16.6295C26.8201 16.5785 26.6659 16.4988 26.5291 16.3941C26.29 16.2063 26.2866 16.0302 26.5219 15.8417C26.6903 15.7138 26.8823 15.6207 27.087 15.5677C27.1013 15.5664 27.1157 15.567 27.1298 15.5696C27.2187 15.7028 27.2905 15.8466 27.3435 15.9977C27.3055 16.0077 27.2762 16.0134 27.2481 16.0232C27.2053 16.0377 27.1683 16.0656 27.1428 16.103C27.1172 16.1403 27.1045 16.185 27.1065 16.2301C27.1111 16.2771 27.1318 16.3212 27.1652 16.3547C27.1987 16.3881 27.2425 16.4089 27.2896 16.4137C27.3246 16.4166 27.3598 16.4175 27.3949 16.4165H29.2339C29.2691 16.4177 29.3042 16.4166 29.3392 16.4134C29.3879 16.4074 29.4326 16.3837 29.4651 16.3468C29.4975 16.3099 29.5151 16.2624 29.5148 16.2133C29.5144 16.1643 29.496 16.1171 29.4631 16.0807C29.4301 16.0443 29.3849 16.0212 29.3361 16.016C29.2952 16.0111 29.2538 16.01 29.2035 16.0066L29.4576 15.5407C29.7093 15.6154 29.953 15.7045 30.1523 15.8846C30.1838 15.9138 30.2115 15.9467 30.2348 15.9829C30.2641 16.0204 30.2799 16.0668 30.2794 16.1146C30.279 16.1622 30.2625 16.2085 30.2325 16.2455V16.2453Z" fill="white"/>
<path d="M30.9449 14.6045C30.8404 14.5937 30.7351 14.5941 30.6307 14.6057C30.5817 14.6115 30.5367 14.6355 30.5044 14.6728C30.472 14.7101 30.4547 14.7581 30.4558 14.8074C30.4584 14.8586 30.4798 14.9072 30.516 14.9436C30.5523 14.9798 30.6007 15.0015 30.6519 15.0042C30.6984 15.008 30.7454 15.0049 30.7923 15.0049C30.835 15.0049 30.878 15.007 30.9208 15.0044C30.9719 15.0032 31.0208 14.9833 31.0579 14.9482C31.0952 14.9132 31.1181 14.8656 31.1224 14.8147C31.1259 14.7634 31.1094 14.7128 31.0762 14.6736C31.0431 14.6342 30.996 14.6094 30.9449 14.6045Z" fill="white"/>
<path d="M29.4333 13.1018C29.3819 13.0974 29.3309 13.1134 29.2915 13.1465C29.2521 13.1797 29.2274 13.2271 29.223 13.2783C29.2114 13.3788 29.2108 13.4803 29.2212 13.5808C29.223 13.6073 29.23 13.633 29.2419 13.6566C29.2538 13.6804 29.2704 13.7014 29.2905 13.7184C29.3108 13.7355 29.3343 13.7483 29.3596 13.7561C29.3849 13.7639 29.4115 13.7665 29.4378 13.7636C29.4888 13.7592 29.5363 13.7358 29.5707 13.6979C29.6052 13.66 29.624 13.6105 29.6237 13.5594C29.6261 13.5166 29.624 13.4737 29.624 13.4308C29.624 13.388 29.6263 13.345 29.6236 13.3024C29.6225 13.2513 29.6025 13.2023 29.5673 13.1653C29.5321 13.1282 29.4843 13.1055 29.4333 13.1018Z" fill="white"/>
<path d="M30.4678 13.5375C30.4432 13.5395 30.4195 13.5471 30.3983 13.5596C30.2993 13.646 30.2065 13.7394 30.1204 13.8387C30.065 13.9073 30.0937 14.0102 30.1587 14.0719C30.1898 14.1052 30.2321 14.1258 30.2776 14.1297C30.323 14.1336 30.3681 14.1205 30.4044 14.093C30.4911 14.0206 30.5715 13.9411 30.6448 13.8553C30.669 13.8264 30.6833 13.7906 30.6855 13.753C30.6878 13.7154 30.6778 13.6782 30.6572 13.6467C30.639 13.6125 30.6116 13.5842 30.578 13.5649C30.5447 13.5456 30.5065 13.5361 30.4678 13.5375Z" fill="white"/>
<path d="M35.5665 14.8655C35.5519 14.8654 35.5374 14.8684 35.524 14.8745C35.5107 14.8805 35.4989 14.8893 35.4894 14.9004C35.4797 14.9114 35.4727 14.9244 35.4686 14.9384C35.4645 14.9524 35.4635 14.9672 35.4657 14.9816C35.4656 14.9952 35.4683 15.0087 35.4736 15.0211C35.4789 15.0337 35.4868 15.0449 35.4965 15.0543C35.5065 15.0636 35.5181 15.0708 35.531 15.0754C35.5437 15.08 35.5573 15.082 35.5708 15.0811C35.5845 15.0802 35.5977 15.0767 35.6099 15.0706C35.622 15.0647 35.6329 15.0563 35.6419 15.046C35.6508 15.0357 35.6576 15.0238 35.6619 15.0109C35.6661 14.998 35.6678 14.9845 35.6668 14.971C35.6673 14.9574 35.665 14.9439 35.6603 14.9311C35.6555 14.9184 35.6483 14.9069 35.6389 14.897C35.6295 14.8871 35.6183 14.8793 35.6059 14.8739C35.5935 14.8684 35.58 14.8656 35.5665 14.8655Z" fill="white"/>
<path d="M21.2636 13.9961C21.2908 13.9961 21.3169 13.9856 21.3364 13.9667C21.3559 13.9477 21.3673 13.9219 21.3682 13.8948C21.3653 13.8698 21.3542 13.8466 21.3366 13.8288C21.319 13.8109 21.2958 13.7997 21.2709 13.7966C21.2575 13.7966 21.2441 13.7992 21.2317 13.8043C21.2192 13.8094 21.2079 13.817 21.1983 13.8265C21.1888 13.8359 21.1812 13.8473 21.176 13.8597C21.1708 13.8721 21.1682 13.8854 21.1682 13.899C21.1692 13.9241 21.1795 13.948 21.1971 13.966C21.2148 13.984 21.2385 13.9947 21.2636 13.9961Z" fill="white"/>
<path d="M23.6007 20.2595C23.5736 20.2594 23.5475 20.2699 23.5279 20.2887C23.5083 20.3075 23.497 20.3332 23.4959 20.3602C23.4988 20.385 23.51 20.4082 23.5275 20.4261C23.5451 20.444 23.568 20.4556 23.5927 20.459C23.6198 20.4587 23.6458 20.4479 23.6648 20.4286C23.684 20.4094 23.6949 20.3834 23.6951 20.3563C23.6948 20.3311 23.6848 20.3071 23.6672 20.2891C23.6497 20.271 23.6258 20.2605 23.6007 20.2595Z" fill="white"/>
<path d="M21.3702 16.0896C21.3695 16.0632 21.3581 16.0381 21.3388 16.0199C21.3195 16.0017 21.2937 15.992 21.2672 15.9927C21.2408 15.9936 21.2157 16.0048 21.1975 16.0241C21.1794 16.0434 21.1695 16.0692 21.1703 16.0957C21.1707 16.1088 21.1736 16.1217 21.1791 16.1337C21.1845 16.1456 21.1922 16.1565 21.2017 16.1655C21.2112 16.1744 21.2226 16.1815 21.2348 16.1861C21.2471 16.1908 21.2602 16.193 21.2733 16.1926C21.2864 16.1922 21.2993 16.1893 21.3113 16.1839C21.3233 16.1785 21.334 16.1708 21.343 16.1612C21.352 16.1517 21.3591 16.1404 21.3637 16.1282C21.3684 16.1159 21.3706 16.1029 21.3702 16.0896Z" fill="white"/>
<path d="M33.557 19.8701C33.5299 19.8721 33.5047 19.8841 33.486 19.9037C33.4672 19.9233 33.4565 19.9492 33.4559 19.9764C33.458 20.0015 33.4695 20.025 33.4881 20.0421C33.5068 20.0591 33.531 20.0686 33.5564 20.0687C33.5816 20.0692 33.606 20.0598 33.6245 20.0426C33.643 20.0254 33.6542 20.0017 33.6556 19.9766C33.6566 19.9494 33.6467 19.9229 33.6283 19.903C33.6098 19.883 33.5842 19.8712 33.557 19.8701Z" fill="white"/>
<path d="M33.9258 19.4612C33.9007 19.4605 33.8762 19.4695 33.8574 19.486C33.8385 19.5028 33.8267 19.5261 33.8244 19.5511C33.823 19.5782 33.8323 19.6047 33.8502 19.6251C33.8682 19.6454 33.8933 19.658 33.9204 19.6601C33.9454 19.6589 33.9693 19.6491 33.9881 19.6325C34.0069 19.6157 34.0194 19.593 34.0235 19.5683C34.0243 19.5413 34.0145 19.5151 33.9963 19.495C33.978 19.4751 33.9528 19.463 33.9258 19.4612Z" fill="white"/>
<path d="M24.4583 9.05268C24.4834 9.05106 24.5071 9.04055 24.5251 9.0229C24.5431 9.00535 24.5542 8.98185 24.5564 8.95683C24.5557 8.92976 24.5448 8.90387 24.5257 8.88449C24.5068 8.86521 24.4812 8.85373 24.4541 8.85254C24.4291 8.85438 24.4055 8.86521 24.3877 8.88297C24.37 8.90073 24.3592 8.92424 24.3572 8.94936C24.3569 8.96279 24.3592 8.97622 24.3641 8.98878C24.369 9.00135 24.3764 9.01283 24.3858 9.02247C24.3953 9.03211 24.4066 9.0398 24.4189 9.04489C24.4314 9.05008 24.4448 9.05279 24.4583 9.05268Z" fill="white"/>
<path d="M25.4305 21.4546C25.4054 21.4565 25.382 21.468 25.3652 21.4868C25.3484 21.5056 25.3396 21.5302 25.3406 21.5554C25.3421 21.5805 25.3527 21.6041 25.3704 21.6221C25.3881 21.64 25.4117 21.6508 25.4368 21.6525C25.4637 21.6512 25.4893 21.6398 25.5084 21.6206C25.5274 21.6014 25.5386 21.5759 25.5398 21.5489C25.5375 21.522 25.5247 21.4971 25.5044 21.4795C25.484 21.4618 25.4574 21.4528 25.4305 21.4546Z" fill="white"/>
<path d="M31.8093 21.2026C31.784 21.2037 31.76 21.2144 31.7423 21.2326C31.7245 21.2507 31.7144 21.275 31.7138 21.3003C31.7133 21.3257 31.7225 21.3504 31.7395 21.3692C31.7564 21.3881 31.7799 21.3999 31.8051 21.402C31.8323 21.4031 31.8588 21.3936 31.8791 21.3754C31.8993 21.3572 31.9118 21.332 31.9136 21.3048C31.9124 21.2777 31.901 21.2521 31.8816 21.2332C31.8622 21.2142 31.8364 21.2033 31.8093 21.2026Z" fill="white"/>
<path d="M27.0178 21.9486C26.9926 21.9472 26.9678 21.9555 26.9484 21.9716C26.929 21.9877 26.9164 22.0106 26.9131 22.0356C26.9105 22.0555 26.914 22.0758 26.9231 22.0937C26.9321 22.1116 26.9464 22.1265 26.9641 22.1361C26.9816 22.1458 27.0018 22.15 27.0218 22.148C27.0418 22.1462 27.0608 22.1383 27.0763 22.1254C27.0917 22.1126 27.1029 22.0954 27.1084 22.076C27.114 22.0567 27.1135 22.0362 27.1072 22.0171C27.101 21.998 27.0891 21.9812 27.0731 21.969C27.0571 21.9568 27.0378 21.9497 27.0178 21.9486Z" fill="white"/>
<path d="M25.9323 8.31942C25.9572 8.31639 25.9802 8.30523 25.9982 8.2878C26.0161 8.27036 26.0279 8.2474 26.0315 8.22271C26.0313 8.19552 26.0205 8.16953 26.0014 8.15025C25.9823 8.13097 25.9564 8.11993 25.9293 8.11938C25.9158 8.11949 25.9026 8.12253 25.8904 8.12805C25.878 8.13357 25.8671 8.14148 25.858 8.15144C25.8489 8.16141 25.8419 8.1731 25.8375 8.18577C25.8332 8.19855 25.8313 8.21198 25.8323 8.22541C25.8352 8.25032 25.8468 8.2735 25.8651 8.29072C25.8834 8.30794 25.9072 8.31812 25.9323 8.31942Z" fill="white"/>
<path d="M28.631 7.89739C28.658 7.89718 28.6839 7.88613 28.703 7.86696C28.7222 7.84768 28.7328 7.82169 28.7329 7.79461C28.7324 7.78118 28.7294 7.76797 28.7238 7.75573C28.7181 7.7435 28.7101 7.73256 28.7001 7.72357C28.6901 7.71458 28.6785 7.70765 28.6657 7.70331C28.6531 7.69887 28.6396 7.69703 28.6262 7.69801C28.6013 7.70115 28.5783 7.71306 28.5614 7.73158C28.5445 7.7501 28.5347 7.77404 28.5339 7.79916C28.5366 7.82407 28.5478 7.84736 28.5653 7.86512C28.583 7.88299 28.6062 7.89436 28.631 7.89739Z" fill="white"/>
<path d="M21.9393 18.0838C21.9119 18.0832 21.8855 18.0935 21.8655 18.1121C21.8456 18.1308 21.8335 18.1564 21.8321 18.1837C21.8337 18.2091 21.8443 18.233 21.8618 18.2513C21.8793 18.2696 21.9028 18.2811 21.9281 18.2838C21.9542 18.2848 21.9797 18.2753 21.9991 18.2577C22.0185 18.24 22.0302 18.2155 22.0316 18.1892C22.0331 18.1631 22.0243 18.1374 22.007 18.1177C21.9898 18.0979 21.9654 18.0858 21.9393 18.0838Z" fill="white"/>
<path d="M28.6566 22.0701C28.6315 22.0716 28.6076 22.0818 28.5892 22.099C28.5708 22.1163 28.5591 22.1394 28.5559 22.1645C28.5555 22.1916 28.5658 22.2178 28.5844 22.2374C28.603 22.2571 28.6287 22.2686 28.6558 22.2696C28.681 22.2696 28.7053 22.26 28.7238 22.2429C28.7423 22.2258 28.7537 22.2023 28.7556 22.1772C28.7561 22.15 28.7461 22.1237 28.7276 22.1037C28.7092 22.0838 28.6837 22.0717 28.6566 22.0701Z" fill="white"/>
<path d="M29.7326 8.0191C29.7578 8.01672 29.7813 8.00545 29.7988 7.98737C29.8163 7.96917 29.827 7.94545 29.8286 7.92022C29.8276 7.89293 29.8161 7.86704 29.7964 7.8482C29.7767 7.82925 29.7505 7.81874 29.7232 7.81885C29.698 7.8208 29.6744 7.83195 29.657 7.85026C29.6396 7.86856 29.6296 7.89271 29.629 7.91795C29.629 7.93148 29.6316 7.94491 29.6368 7.95737C29.642 7.96982 29.6497 7.98109 29.6594 7.99051C29.6691 7.99993 29.6805 8.0073 29.6931 8.01228C29.7057 8.01715 29.7192 8.01953 29.7326 8.0191Z" fill="white"/>
<path d="M35.05 17.571C35.0229 17.5717 34.9971 17.5828 34.9782 17.6022C34.9592 17.6216 34.9485 17.6476 34.9484 17.6747C34.9486 17.6999 34.9586 17.7241 34.9762 17.7421C34.9938 17.7601 35.0177 17.7706 35.0429 17.7713C35.07 17.7715 35.0962 17.761 35.1156 17.7421C35.1351 17.7231 35.1463 17.6973 35.1469 17.6703C35.144 17.6452 35.1328 17.6221 35.1154 17.6041C35.0979 17.5861 35.0749 17.5745 35.05 17.571Z" fill="white"/>
<path d="M35.4428 14.4133C35.4435 14.4385 35.4534 14.4627 35.471 14.481C35.4885 14.4992 35.5122 14.5103 35.5375 14.512C35.5647 14.5123 35.5909 14.502 35.6107 14.4834C35.6305 14.4647 35.6424 14.4392 35.6438 14.412C35.6421 14.3869 35.6317 14.3631 35.6143 14.3447C35.5968 14.3266 35.5734 14.315 35.5483 14.3123C35.5211 14.3123 35.4949 14.3228 35.4753 14.3416C35.4557 14.3605 35.444 14.3861 35.4428 14.4133Z" fill="white"/>
<path d="M32.302 20.9218C32.2758 20.9174 32.249 20.9236 32.2273 20.939C32.2056 20.9545 32.1909 20.9779 32.1866 21.0041C32.1821 21.0304 32.1883 21.0572 32.2038 21.0789C32.2192 21.1006 32.2426 21.1152 32.2689 21.1196C32.2951 21.124 32.3219 21.1178 32.3436 21.1024C32.3653 21.0869 32.38 21.0635 32.3843 21.0373C32.3887 21.011 32.3825 20.9843 32.3671 20.9625C32.3516 20.9408 32.3283 20.9262 32.302 20.9218Z" fill="white"/>
<path d="M35.5448 15.4341C35.5197 15.4358 35.496 15.4462 35.4778 15.4634C35.4595 15.4807 35.4479 15.5038 35.4449 15.5287C35.4438 15.5487 35.4488 15.5685 35.4591 15.5856C35.4693 15.6027 35.4846 15.6164 35.5027 15.6247C35.5208 15.6331 35.541 15.6359 35.5609 15.6326C35.5805 15.6294 35.5988 15.6204 35.6133 15.6066C35.6278 15.5929 35.6379 15.5751 35.6421 15.5556C35.6464 15.5361 35.6448 15.5157 35.6374 15.4971C35.6301 15.4786 35.6173 15.4627 35.6008 15.4514C35.5842 15.4401 35.5648 15.4342 35.5448 15.4341Z" fill="white"/>
<path d="M34.258 19.0215C34.2313 19.0214 34.2058 19.0317 34.1868 19.0504C34.1679 19.069 34.1571 19.0945 34.1569 19.1211C34.1568 19.1477 34.1671 19.1733 34.1858 19.1922C34.2045 19.2111 34.2299 19.2218 34.2566 19.2221C34.2817 19.2212 34.3057 19.2112 34.3242 19.1941C34.3427 19.1769 34.3543 19.1536 34.3569 19.1286C34.3573 19.1014 34.3472 19.0752 34.3288 19.0553C34.3104 19.0353 34.285 19.0232 34.258 19.0215Z" fill="white"/>
<path d="M24.9454 21.2063C24.9198 21.2077 24.8957 21.2185 24.8776 21.2365C24.8595 21.2546 24.8487 21.2788 24.8473 21.3043C24.8467 21.3299 24.8561 21.3548 24.8734 21.3736C24.8908 21.3925 24.9146 21.4038 24.9403 21.4054C24.954 21.4057 24.9675 21.4034 24.9803 21.3984C24.9931 21.3936 25.0048 21.3861 25.0145 21.3766C25.0244 21.3671 25.0323 21.3558 25.0377 21.3432C25.0431 21.3306 25.046 21.3172 25.0462 21.3034C25.0431 21.2782 25.0314 21.2547 25.013 21.2371C24.9947 21.2193 24.9707 21.2085 24.9454 21.2063Z" fill="white"/>
<path d="M30.8104 21.6531C30.7852 21.6546 30.7614 21.6648 30.7431 21.682C30.7248 21.6991 30.7131 21.7223 30.71 21.7472C30.7092 21.7732 30.7186 21.7984 30.7361 21.8176C30.7535 21.8369 30.7778 21.8485 30.8036 21.8502C30.8295 21.8518 30.8551 21.8434 30.8749 21.8266C30.8946 21.8098 30.9072 21.786 30.9098 21.7602C30.9098 21.7331 30.8995 21.7069 30.8811 21.6871C30.8627 21.6673 30.8373 21.6551 30.8104 21.6531Z" fill="white"/>
<path d="M29.751 21.9465C29.7376 21.9464 29.7242 21.9489 29.7118 21.954C29.6994 21.9592 29.6881 21.9668 29.6788 21.9764C29.6694 21.9861 29.662 21.9975 29.6572 22.01C29.6525 22.0226 29.6503 22.036 29.6509 22.0494C29.6526 22.0744 29.6633 22.0981 29.6812 22.1158C29.6989 22.1335 29.7224 22.1442 29.7475 22.1459C29.7745 22.1444 29.8 22.1328 29.8189 22.1134C29.8378 22.094 29.8486 22.0683 29.8494 22.0412C29.8473 22.0162 29.8362 21.9927 29.8181 21.9753C29.8 21.9579 29.7761 21.9476 29.751 21.9465Z" fill="white"/>
<path d="M26.9927 8.02306C27.0179 8.02263 27.0421 8.01288 27.0602 7.99544C27.0786 7.97812 27.0895 7.95451 27.0911 7.92927C27.0912 7.90198 27.0808 7.87577 27.062 7.85595C27.0432 7.83624 27.0176 7.82454 26.9904 7.82324C26.9653 7.82541 26.9417 7.83613 26.9236 7.85368C26.9055 7.87133 26.894 7.89451 26.8911 7.91963C26.8909 7.93306 26.8934 7.94649 26.8983 7.95895C26.9034 7.97151 26.9108 7.98288 26.9203 7.99252C26.9297 8.00216 26.941 8.00974 26.9534 8.01505C26.9658 8.02025 26.9791 8.02295 26.9927 8.02306Z" fill="white"/>
<path d="M31.3001 8.51248C31.3272 8.51161 31.3528 8.50024 31.3718 8.48086C31.3907 8.46136 31.4014 8.43537 31.4016 8.40819C31.4013 8.39497 31.3983 8.38176 31.3929 8.36963C31.3874 8.35739 31.3796 8.34645 31.3698 8.33735C31.3602 8.32826 31.3486 8.32122 31.3362 8.31656C31.3237 8.3119 31.3104 8.30985 31.2971 8.31039C31.2837 8.31104 31.2706 8.31429 31.2586 8.31992C31.2465 8.32566 31.2358 8.33378 31.2269 8.34364C31.218 8.3536 31.2112 8.36519 31.2068 8.37775C31.2024 8.39042 31.2007 8.40374 31.2015 8.41707C31.2037 8.44219 31.2149 8.46569 31.2329 8.48324C31.251 8.50068 31.2749 8.51118 31.3001 8.51248Z" fill="white"/>
<path d="M24.9179 8.76984C24.9313 8.77092 24.9449 8.7693 24.9578 8.76518C24.9706 8.76096 24.9824 8.75435 24.9927 8.74547C25.003 8.7367 25.0114 8.72598 25.0174 8.71396C25.0235 8.70183 25.0271 8.68872 25.0279 8.67518C25.0286 8.66208 25.0266 8.64898 25.0221 8.63663C25.0176 8.62439 25.0107 8.61302 25.0019 8.60338C24.9931 8.59363 24.9824 8.58583 24.9705 8.58031C24.9587 8.57468 24.9458 8.57154 24.9327 8.57089C24.9196 8.57035 24.9065 8.5723 24.8942 8.57685C24.8819 8.58129 24.8705 8.58811 24.8608 8.59699C24.8512 8.60576 24.8433 8.61648 24.8378 8.6284C24.8322 8.6402 24.8291 8.65309 24.8284 8.6662C24.8281 8.69143 24.8371 8.7158 24.8536 8.73497C24.87 8.75403 24.8929 8.76648 24.9179 8.76984Z" fill="white"/>
<path d="M24.0078 9.37219C24.0329 9.37013 24.0565 9.35951 24.0746 9.34219C24.0927 9.32486 24.1043 9.30179 24.1076 9.27677C24.1077 9.24969 24.0972 9.2237 24.0782 9.20432C24.0593 9.18482 24.0335 9.17377 24.0064 9.17334C23.9813 9.17323 23.957 9.18287 23.9388 9.2002C23.9206 9.21764 23.91 9.24136 23.909 9.26648C23.9086 9.27991 23.9109 9.29334 23.9155 9.3059C23.9202 9.31847 23.9275 9.32995 23.9366 9.3398C23.9458 9.34966 23.9568 9.35757 23.969 9.36309C23.9813 9.36861 23.9945 9.37175 24.0078 9.37219Z" fill="white"/>
<path d="M22.1869 11.418C22.2131 11.4178 22.2382 11.4073 22.2568 11.3888C22.2753 11.3702 22.2859 11.3452 22.2862 11.319C22.2866 11.2927 22.2766 11.2675 22.2585 11.2484C22.2404 11.2296 22.2155 11.2184 22.1893 11.2175C22.1628 11.2172 22.1371 11.2275 22.118 11.246C22.0991 11.2645 22.0882 11.2899 22.0878 11.3165C22.0876 11.3432 22.0978 11.3687 22.1163 11.3878C22.1349 11.4069 22.1603 11.4177 22.1869 11.418Z" fill="white"/>
<path d="M21.9214 11.9033C21.9484 11.9026 21.9742 11.8917 21.9936 11.8726C22.013 11.8538 22.0244 11.8281 22.0257 11.801C22.0248 11.7749 22.0136 11.7501 21.9946 11.7321C21.9756 11.7142 21.9503 11.7043 21.9242 11.7049C21.898 11.7053 21.8731 11.7161 21.8548 11.7349C21.8365 11.7535 21.8263 11.7786 21.8264 11.8048C21.8275 11.8299 21.8378 11.8539 21.8552 11.872C21.8727 11.8902 21.8962 11.9012 21.9214 11.9033Z" fill="white"/>
<path d="M21.7026 12.4047C21.7276 12.4041 21.7515 12.3938 21.7693 12.3761C21.7871 12.3585 21.7976 12.3347 21.7984 12.3096C21.7988 12.2825 21.7885 12.2564 21.7696 12.2368C21.7509 12.2173 21.7251 12.206 21.698 12.2053C21.6731 12.2082 21.65 12.2194 21.6321 12.2369C21.6142 12.2546 21.6027 12.2778 21.5996 12.3026C21.5998 12.3298 21.6107 12.3558 21.63 12.3748C21.6493 12.394 21.6754 12.4047 21.7026 12.4047Z" fill="white"/>
<path d="M21.3598 13.4559C21.3732 13.4571 21.3868 13.4556 21.3996 13.4514C21.4124 13.4471 21.4242 13.4404 21.4344 13.4316C21.4445 13.4227 21.4528 13.4118 21.4587 13.3997C21.4646 13.3875 21.468 13.3744 21.4687 13.3608C21.469 13.3474 21.4667 13.334 21.4618 13.3214C21.457 13.3087 21.4497 13.2973 21.4404 13.2875C21.431 13.2778 21.4198 13.27 21.4075 13.2646C21.3951 13.2592 21.3818 13.2563 21.3683 13.2561C21.3431 13.2578 21.3194 13.2686 21.3013 13.2862C21.2832 13.3038 21.272 13.3273 21.2696 13.3524C21.2697 13.3776 21.2789 13.4019 21.2955 13.4209C21.312 13.4399 21.3349 13.4523 21.3598 13.4559Z" fill="white"/>
<path d="M35.3778 13.8635C35.3795 13.8904 35.3912 13.9158 35.4105 13.9345C35.4299 13.9534 35.4556 13.9643 35.4826 13.9653C35.5095 13.9633 35.5347 13.9506 35.5524 13.9303C35.5702 13.9097 35.5792 13.8832 35.5773 13.8561C35.5749 13.8311 35.563 13.8079 35.5441 13.7913C35.5251 13.7749 35.5005 13.7661 35.4754 13.7672C35.4505 13.7691 35.4269 13.7799 35.409 13.7975C35.3912 13.8151 35.3802 13.8384 35.3778 13.8635Z" fill="white"/>
<path d="M35.2757 13.3242C35.2758 13.3378 35.2785 13.3513 35.2839 13.3639C35.2892 13.3765 35.2971 13.3877 35.3069 13.3971C35.3167 13.4066 35.3284 13.4139 35.3411 13.4188C35.3539 13.4236 35.3675 13.4258 35.3811 13.4253C35.4064 13.4217 35.4296 13.4089 35.4463 13.3897C35.463 13.3703 35.472 13.3456 35.4719 13.3199C35.4702 13.2945 35.4587 13.2705 35.4399 13.2533C35.4209 13.2361 35.3961 13.2268 35.3706 13.2273C35.3579 13.2271 35.3452 13.2295 35.3335 13.2342C35.3218 13.239 35.3111 13.2463 35.3022 13.2553C35.2933 13.2644 35.2864 13.2752 35.2819 13.287C35.2772 13.2989 35.2753 13.3115 35.2757 13.3242Z" fill="white"/>
<path d="M34.5617 18.5596C34.5361 18.5593 34.5113 18.5686 34.4922 18.5857C34.4732 18.6027 34.4612 18.6264 34.4588 18.6519C34.4578 18.6652 34.4594 18.6785 34.4638 18.6911C34.4679 18.7037 34.4747 18.7154 34.4835 18.7253C34.4923 18.7354 34.5031 18.7435 34.5151 18.7491C34.5271 18.7548 34.5401 18.7582 34.5534 18.7587C34.5667 18.7594 34.5801 18.7572 34.5925 18.7527C34.6051 18.748 34.6165 18.7409 34.6261 18.7318C34.6358 18.7227 34.6435 18.7116 34.649 18.6995C34.6543 18.6873 34.6572 18.6742 34.6574 18.6608C34.6562 18.6353 34.6458 18.6111 34.6283 18.5925C34.6107 18.574 34.5871 18.5623 34.5617 18.5596Z" fill="white"/>
<path d="M25.4241 8.52318C25.4428 8.52199 25.4608 8.5156 25.476 8.50444C25.4911 8.4934 25.5028 8.47813 25.5096 8.46058C25.5162 8.44304 25.5178 8.42397 25.5139 8.40556C25.51 8.38726 25.5009 8.37036 25.4877 8.35704C25.4745 8.34372 25.4577 8.33441 25.4394 8.3304C25.4211 8.32639 25.4019 8.32769 25.3844 8.33419C25.3667 8.34069 25.3513 8.35217 25.3402 8.36722C25.3289 8.38228 25.3222 8.40026 25.3209 8.41899C25.3209 8.43253 25.3235 8.44607 25.3286 8.45874C25.3338 8.4713 25.3413 8.48278 25.3509 8.49253C25.3605 8.50217 25.3719 8.50986 25.3845 8.51517C25.397 8.52047 25.4106 8.52307 25.4241 8.52318Z" fill="white"/>
<path d="M34.5526 11.3926C34.578 11.3905 34.6018 11.3788 34.619 11.3597C34.6362 11.3408 34.6454 11.3159 34.6447 11.2903C34.6441 11.2646 34.6338 11.2403 34.6156 11.2221C34.5976 11.2039 34.5732 11.1934 34.5477 11.1926C34.5346 11.1928 34.5216 11.1958 34.5096 11.2011C34.4975 11.2064 34.4868 11.2141 34.4777 11.2236C34.4686 11.2331 34.4616 11.2443 34.4568 11.2565C34.4521 11.2688 34.4498 11.2819 34.4502 11.295C34.4504 11.3082 34.4534 11.321 34.4587 11.3331C34.464 11.345 34.4717 11.3559 34.4812 11.3649C34.4906 11.374 34.5019 11.3812 34.5141 11.3858C34.5264 11.3905 34.5395 11.3928 34.5526 11.3926Z" fill="white"/>
<path d="M22.4894 10.9532C22.5151 10.9526 22.5395 10.9421 22.5578 10.9241C22.576 10.9061 22.5867 10.8818 22.5877 10.8562C22.5871 10.8425 22.5839 10.8292 22.5782 10.8168C22.5725 10.8044 22.5644 10.7933 22.5544 10.7839C22.5443 10.7747 22.5326 10.7675 22.5197 10.7628C22.507 10.7581 22.4934 10.7559 22.4798 10.7564C22.4542 10.7588 22.4305 10.7708 22.4136 10.7901C22.3967 10.8093 22.3877 10.8343 22.3887 10.86C22.3902 10.8855 22.4016 10.9095 22.4203 10.9268C22.4391 10.9441 22.4639 10.9536 22.4894 10.9532Z" fill="white"/>
<path d="M23.1837 10.105C23.209 10.1052 23.2335 10.0961 23.2523 10.0793C23.2711 10.0625 23.2831 10.0393 23.2857 10.0142C23.287 9.98714 23.2777 9.9606 23.2599 9.94013C23.2419 9.91977 23.2168 9.9071 23.1898 9.90504C23.1635 9.90461 23.1383 9.91468 23.1193 9.93277C23.1003 9.95096 23.0893 9.97576 23.0885 10.002C23.0878 10.0282 23.0973 10.0536 23.1151 10.073C23.1328 10.0922 23.1575 10.1037 23.1837 10.105Z" fill="white"/>
<path d="M22.8367 19.4661C22.8232 19.466 22.8098 19.4687 22.7972 19.474C22.7848 19.4793 22.7734 19.487 22.764 19.4967C22.7544 19.5064 22.7471 19.5179 22.7421 19.5306C22.7372 19.5433 22.7349 19.5568 22.7354 19.5704C22.7365 19.5957 22.7473 19.6198 22.7656 19.6375C22.7838 19.6552 22.8083 19.6651 22.8336 19.6653C22.8591 19.6638 22.883 19.653 22.901 19.6349C22.9188 19.6168 22.9296 19.5928 22.931 19.5673C22.9301 19.5419 22.9201 19.5176 22.9029 19.499C22.8856 19.4804 22.8621 19.4687 22.8367 19.4661Z" fill="white"/>
<path d="M32.7151 9.35306C32.7284 9.35371 32.7416 9.35165 32.7542 9.3471C32.7666 9.34255 32.7781 9.33551 32.7879 9.32652C32.7976 9.31754 32.8054 9.3066 32.8109 9.29447C32.8164 9.28234 32.8194 9.26923 32.8198 9.25591C32.8201 9.24259 32.8177 9.22938 32.8129 9.21703C32.8081 9.20468 32.8009 9.19342 32.7915 9.18389C32.7823 9.17425 32.7712 9.16667 32.7589 9.16147C32.7467 9.15638 32.7336 9.15367 32.7203 9.15356C32.6947 9.15432 32.6703 9.16483 32.6524 9.18292C32.6343 9.201 32.6239 9.22537 32.6232 9.25082C32.6226 9.27649 32.6317 9.30129 32.6488 9.32024C32.6659 9.3393 32.6896 9.351 32.7151 9.35306Z" fill="white"/>
<path d="M24.0275 20.6102C24.0139 20.6096 24.0002 20.6117 23.9875 20.6165C23.9746 20.6213 23.9629 20.6286 23.953 20.6381C23.9431 20.6475 23.9352 20.6587 23.9297 20.6713C23.9244 20.6838 23.9216 20.6974 23.9215 20.7111C23.9238 20.7365 23.9349 20.7603 23.9531 20.7782C23.9713 20.7962 23.9953 20.807 24.0207 20.8088C24.0463 20.8078 24.0705 20.7973 24.0887 20.7794C24.1069 20.7614 24.1178 20.7374 24.1193 20.7118C24.1204 20.6862 24.1114 20.6612 24.0941 20.6423C24.077 20.6233 24.0531 20.6117 24.0275 20.6102Z" fill="white"/>
<path d="M31.8025 8.75387C31.8279 8.75159 31.8514 8.7399 31.8685 8.72105C31.8856 8.70232 31.8951 8.67773 31.895 8.65228C31.8934 8.62672 31.8821 8.60279 31.8633 8.58535C31.8445 8.56791 31.8199 8.55838 31.7942 8.5586C31.7685 8.55903 31.744 8.56921 31.7257 8.58708C31.7074 8.60506 31.6968 8.62932 31.6958 8.65488C31.6961 8.66853 31.6991 8.68185 31.7047 8.6943C31.7101 8.70665 31.7182 8.7178 31.7281 8.72712C31.7381 8.73632 31.7498 8.74347 31.7626 8.74802C31.7753 8.75268 31.789 8.75463 31.8025 8.75387Z" fill="white"/>
<path d="M26.4814 21.8261C26.4559 21.8247 26.4309 21.833 26.4113 21.8494C26.3917 21.8656 26.379 21.8887 26.3757 21.914C26.3748 21.9415 26.3847 21.9683 26.4034 21.9885C26.422 22.0087 26.4479 22.0207 26.4754 22.0219C26.5009 22.0206 26.5249 22.0102 26.5433 21.9925C26.5617 21.975 26.5732 21.9514 26.5757 21.926C26.5756 21.9005 26.5657 21.8759 26.5483 21.8574C26.5308 21.8389 26.5068 21.8276 26.4814 21.8261Z" fill="white"/>
<path d="M21.1816 15.0951C21.2075 15.0952 21.2327 15.0853 21.2514 15.0673C21.2703 15.0492 21.2813 15.0246 21.2823 14.9985C21.2832 14.9725 21.274 14.9472 21.2566 14.9278C21.2392 14.9084 21.2149 14.8966 21.189 14.8948C21.1638 14.8946 21.1394 14.9036 21.1206 14.9202C21.1016 14.9367 21.0896 14.9598 21.0866 14.9848C21.0852 15.0119 21.0941 15.0384 21.1118 15.0591C21.1296 15.0797 21.1545 15.0925 21.1816 15.0951Z" fill="white"/>
<path d="M30.2702 8.1405C30.2956 8.13833 30.3194 8.12685 30.3371 8.10833C30.3546 8.08981 30.3648 8.06555 30.3657 8.0401C30.3632 8.01476 30.3517 7.99104 30.3333 7.97339C30.3149 7.95563 30.2908 7.94512 30.2654 7.9436C30.2517 7.94371 30.2383 7.94664 30.2258 7.95227C30.2133 7.95779 30.2021 7.96591 30.1929 7.97588C30.1837 7.98595 30.1767 7.99786 30.1722 8.01075C30.1678 8.02364 30.166 8.03729 30.167 8.05093C30.169 8.07638 30.181 8.1001 30.2003 8.11689C30.2196 8.13357 30.2447 8.14202 30.2702 8.1405Z" fill="white"/>
<path d="M27.5418 7.93946C27.5673 7.9374 27.5912 7.92559 27.6082 7.90632C27.6252 7.88715 27.6341 7.86224 27.6331 7.83657C27.6322 7.8109 27.6213 7.78675 27.6026 7.7691C27.584 7.75144 27.5592 7.74191 27.5336 7.74245C27.5081 7.74375 27.4839 7.75415 27.4657 7.77191C27.4473 7.78957 27.4362 7.81339 27.4341 7.83884C27.4355 7.86624 27.4475 7.89213 27.4676 7.91097C27.4877 7.92971 27.5143 7.94 27.5418 7.93946Z" fill="white"/>
<path d="M28.086 7.89855C28.111 7.89617 28.1344 7.88534 28.1523 7.86779C28.1702 7.85025 28.1815 7.82696 28.1843 7.80205C28.1844 7.77487 28.1738 7.74866 28.1547 7.72938C28.1356 7.70999 28.1096 7.69906 28.0824 7.69873C28.0573 7.69906 28.0332 7.70913 28.0153 7.72678C27.9974 7.74454 27.9871 7.76848 27.9866 7.7936C27.9859 7.80714 27.988 7.82057 27.9927 7.83324C27.9974 7.84591 28.0047 7.8575 28.014 7.86725C28.0233 7.87711 28.0344 7.8849 28.0468 7.89021C28.0591 7.89563 28.0726 7.89844 28.086 7.89855Z" fill="white"/>
<path d="M35.231 12.8942C35.2564 12.8923 35.2803 12.8807 35.2975 12.8619C35.3147 12.843 35.3241 12.8183 35.3237 12.7928C35.3233 12.7672 35.3131 12.7429 35.2953 12.7246C35.2775 12.7062 35.2534 12.6954 35.2278 12.6943C35.2142 12.6948 35.2009 12.698 35.1884 12.7038C35.1761 12.7094 35.165 12.7175 35.1558 12.7276C35.1465 12.7377 35.1395 12.7494 35.1348 12.7621C35.1301 12.775 35.1282 12.7887 35.1288 12.8022C35.1311 12.8277 35.1429 12.8512 35.1619 12.8683C35.1807 12.8854 35.2054 12.8946 35.231 12.8942Z" fill="white"/>
<path d="M35.231 17.0537C35.2057 17.0545 35.1817 17.0649 35.1638 17.0827C35.146 17.1005 35.1356 17.1244 35.1347 17.1497C35.1339 17.1748 35.1424 17.1993 35.1586 17.2185C35.1749 17.2377 35.1977 17.2502 35.2226 17.2534C35.2498 17.2553 35.2766 17.2463 35.297 17.2284C35.3176 17.2105 35.3302 17.1854 35.3321 17.1582C35.3321 17.1311 35.3216 17.105 35.3027 17.0856C35.2838 17.0661 35.258 17.0547 35.231 17.0537Z" fill="white"/>
<path d="M35.0309 12.3764C35.0446 12.3771 35.0581 12.375 35.0708 12.3703C35.0836 12.3655 35.0951 12.3582 35.105 12.3488C35.1149 12.3394 35.1227 12.328 35.1279 12.3156C35.1333 12.303 35.1359 12.2896 35.1358 12.2759C35.1361 12.2503 35.1261 12.2255 35.1083 12.2071C35.0904 12.1885 35.0659 12.1778 35.0402 12.1773C35.0146 12.1767 34.9897 12.1864 34.971 12.204C34.9523 12.2217 34.9414 12.246 34.9405 12.2717C34.9401 12.2973 34.949 12.322 34.9657 12.3413C34.9824 12.3606 35.0056 12.3731 35.0309 12.3764Z" fill="white"/>
<path d="M33.153 9.70354C33.1782 9.70019 33.2013 9.68762 33.2179 9.66835C33.2344 9.64907 33.2434 9.62427 33.2428 9.59892C33.2423 9.57336 33.2316 9.549 33.2133 9.53134C33.1949 9.51358 33.1702 9.50383 33.1446 9.50416C33.1192 9.50513 33.0951 9.51564 33.0773 9.53373C33.0595 9.55181 33.0492 9.57607 33.0487 9.60152C33.0484 9.61517 33.051 9.62871 33.0562 9.64138C33.0614 9.65394 33.0691 9.66531 33.0789 9.67484C33.0887 9.68448 33.1002 9.69196 33.113 9.69683C33.1258 9.7017 33.1393 9.70398 33.153 9.70354Z" fill="white"/>
<path d="M34.2448 10.9288C34.2702 10.9294 34.295 10.92 34.3135 10.9026C34.332 10.8851 34.3431 10.8611 34.344 10.8356C34.3459 10.8099 34.3375 10.7845 34.3207 10.7649C34.3039 10.7454 34.28 10.7334 34.2543 10.7315C34.2286 10.7296 34.2032 10.738 34.1837 10.7547C34.1641 10.7716 34.152 10.7955 34.1501 10.8211C34.1483 10.8347 34.1492 10.8484 34.1531 10.8614C34.157 10.8745 34.1636 10.8865 34.1726 10.8967C34.1816 10.907 34.1928 10.9151 34.2052 10.9207C34.2177 10.9262 34.2311 10.929 34.2448 10.9288Z" fill="white"/>
<path d="M22.8174 10.515C22.8366 10.5151 22.8555 10.5094 22.8716 10.4988C22.8878 10.4882 22.9003 10.473 22.9078 10.4553C22.9153 10.4375 22.9173 10.4179 22.9138 10.3991C22.9101 10.3801 22.901 10.3627 22.8874 10.3489C22.8739 10.3352 22.8566 10.3258 22.8377 10.3219C22.8189 10.318 22.7993 10.3197 22.7814 10.3268C22.7635 10.3341 22.7482 10.3464 22.7372 10.3624C22.7264 10.3783 22.7205 10.397 22.7203 10.4164C22.7215 10.4419 22.732 10.466 22.75 10.4842C22.7679 10.5024 22.7919 10.5133 22.8174 10.515Z" fill="white"/>
<path d="M33.5414 10.0825C33.567 10.0833 33.5919 10.0739 33.6105 10.0565C33.6293 10.039 33.6402 10.0147 33.6411 9.98914C33.6418 9.96359 33.6332 9.93868 33.6166 9.91918C33.6001 9.89969 33.577 9.88702 33.5516 9.88366C33.538 9.88301 33.5243 9.88517 33.5115 9.88994C33.4988 9.8947 33.4872 9.90218 33.4772 9.9116C33.4674 9.92102 33.4597 9.93239 33.4543 9.94496C33.4489 9.95752 33.4462 9.97106 33.4463 9.9847C33.446 9.99738 33.4484 10.01 33.453 10.0219C33.4576 10.0337 33.4645 10.0444 33.4734 10.0535C33.4823 10.0626 33.4929 10.0698 33.5045 10.0748C33.5162 10.0798 33.5288 10.0824 33.5414 10.0825Z" fill="white"/>
<path d="M33.9126 10.4919C33.938 10.4919 33.9625 10.4818 33.9806 10.4639C33.9987 10.4459 34.0089 10.4215 34.009 10.3959C34.0096 10.3834 34.0077 10.3706 34.0032 10.3588C33.9989 10.3469 33.9922 10.3361 33.9834 10.3267C33.9748 10.3176 33.9642 10.3103 33.9527 10.3052C33.941 10.3002 33.9284 10.2975 33.9157 10.2975C33.9025 10.2963 33.8891 10.2979 33.8764 10.3022C33.8637 10.3065 33.8522 10.3133 33.8422 10.3223C33.8323 10.3312 33.8243 10.3421 33.8188 10.3543C33.8133 10.3665 33.8102 10.3796 33.8101 10.393C33.8099 10.4063 33.8124 10.4197 33.8175 10.432C33.8226 10.4442 33.8303 10.4554 33.8398 10.4647C33.8494 10.4739 33.8609 10.4812 33.8734 10.4858C33.8859 10.4905 33.8993 10.4927 33.9126 10.4919Z" fill="white"/>
<path d="M34.8217 18.0779C34.7961 18.0777 34.7714 18.0872 34.7527 18.1045C34.734 18.1217 34.7225 18.1457 34.7206 18.1711C34.7206 18.1848 34.7234 18.1981 34.7287 18.2107C34.734 18.2232 34.7418 18.2345 34.7516 18.2439C34.7614 18.2534 34.773 18.2608 34.7855 18.2657C34.7983 18.2706 34.8117 18.2728 34.8254 18.2724C34.8509 18.2715 34.8751 18.2607 34.8927 18.2422C34.9104 18.2237 34.9199 18.199 34.9195 18.1734C34.9185 18.148 34.9079 18.1238 34.8897 18.106C34.8715 18.0883 34.8471 18.0782 34.8217 18.0779Z" fill="white"/>
<path d="M30.7969 8.3046C30.8097 8.30406 30.8223 8.30103 30.8338 8.29561C30.8454 8.2902 30.8558 8.28262 30.8645 8.2732C30.8732 8.26366 30.8798 8.25273 30.8842 8.2407C30.8885 8.22868 30.8905 8.2159 30.8899 8.20312C30.8894 8.19034 30.8864 8.17778 30.881 8.1663C30.8755 8.15471 30.8679 8.14421 30.8584 8.13565C30.849 8.12699 30.838 8.12027 30.8259 8.11594C30.814 8.1115 30.8013 8.10966 30.7885 8.1102C30.763 8.11117 30.739 8.12168 30.7207 8.13944C30.7025 8.15709 30.6914 8.18103 30.6897 8.20637C30.6898 8.22002 30.6927 8.23345 30.6983 8.24601C30.7038 8.25847 30.7119 8.26962 30.722 8.27883C30.732 8.28803 30.7438 8.29507 30.7567 8.29951C30.7697 8.30395 30.7834 8.30569 30.7969 8.3046Z" fill="white"/>
<path d="M26.4515 8.1517C26.4649 8.1517 26.4782 8.1491 26.4907 8.1439C26.5031 8.1387 26.5144 8.13123 26.5239 8.1217C26.5335 8.11217 26.541 8.1008 26.5461 8.08845C26.5512 8.07589 26.5539 8.06267 26.5539 8.04914C26.5533 8.02401 26.5431 8.00008 26.5253 7.98242C26.5075 7.96466 26.4836 7.95448 26.4585 7.95394C26.445 7.9534 26.4317 7.95556 26.419 7.96033C26.4064 7.9652 26.3949 7.97246 26.3852 7.98177C26.3754 7.99109 26.3678 8.00224 26.3624 8.0147C26.3571 8.02704 26.3544 8.04036 26.3543 8.05379C26.3571 8.0787 26.3682 8.10199 26.3858 8.11964C26.4035 8.13751 26.4266 8.14878 26.4515 8.1517Z" fill="white"/>
<path d="M35.3781 16.5244C35.359 16.525 35.3403 16.5312 35.3246 16.5423C35.3089 16.5534 35.2968 16.5689 35.2899 16.5868C35.2831 16.6048 35.2815 16.6244 35.2857 16.6432C35.2899 16.662 35.2995 16.6791 35.3135 16.6924C35.3274 16.7057 35.3449 16.7146 35.3639 16.718C35.3828 16.7213 35.4023 16.719 35.4198 16.7112C35.4376 16.7035 35.4526 16.6909 35.4629 16.6746C35.4733 16.6585 35.4787 16.6395 35.4784 16.6204C35.4764 16.5949 35.465 16.571 35.4465 16.5533C35.4281 16.5357 35.4037 16.5254 35.3781 16.5244Z" fill="white"/>
<path d="M30.2787 21.8224C30.2535 21.8242 30.2298 21.8357 30.213 21.8547C30.196 21.8736 30.1872 21.8984 30.1883 21.9238C30.1883 21.9364 30.1908 21.9488 30.1957 21.9604C30.2007 21.972 30.2079 21.9825 30.217 21.9913C30.2261 21.9999 30.2368 22.0068 30.2485 22.0112C30.2603 22.0157 30.2728 22.0178 30.2854 22.0173C30.3109 22.0174 30.3352 22.0075 30.3534 21.9897C30.3716 21.972 30.3821 21.9479 30.3828 21.9225C30.383 21.909 30.3804 21.8955 30.3752 21.8831C30.3701 21.8705 30.3623 21.8592 30.3526 21.8498C30.3428 21.8404 30.3311 21.8331 30.3184 21.8285C30.3058 21.8237 30.2922 21.8217 30.2787 21.8224Z" fill="white"/>
<path d="M23.1885 19.8795C23.1755 19.8805 23.1628 19.8839 23.1511 19.89C23.1396 19.896 23.1293 19.9042 23.1209 19.9142C23.1125 19.9242 23.1063 19.9358 23.1025 19.9484C23.0987 19.9608 23.0975 19.9739 23.0989 19.9869C23.1004 19.9999 23.1044 20.0125 23.1107 20.0239C23.117 20.0352 23.1257 20.0453 23.136 20.0533C23.1463 20.0612 23.1581 20.0672 23.1707 20.0704C23.1834 20.0738 23.1965 20.0746 23.2095 20.0726C23.2223 20.0713 23.2346 20.0675 23.2458 20.0615C23.2571 20.0554 23.267 20.0471 23.275 20.0371C23.2832 20.0271 23.2891 20.0158 23.2927 20.0034C23.2964 19.9912 23.2976 19.9783 23.2962 19.9655C23.2948 19.9528 23.2909 19.9405 23.2847 19.9292C23.2785 19.9181 23.2702 19.9081 23.2602 19.9001C23.2501 19.8922 23.2388 19.8862 23.2264 19.8826C23.2141 19.8792 23.2012 19.8781 23.1885 19.8795Z" fill="white"/>
<path d="M27.5535 22.032C27.528 22.0335 27.504 22.0443 27.486 22.0624C27.4679 22.0805 27.4572 22.1046 27.4557 22.13C27.4553 22.1499 27.461 22.1693 27.4719 22.186C27.4826 22.2027 27.4982 22.2157 27.5165 22.2234C27.5348 22.2311 27.555 22.2331 27.5744 22.2293C27.5939 22.2255 27.6118 22.216 27.6258 22.2019C27.6398 22.1878 27.6493 22.17 27.6531 22.1505C27.6568 22.131 27.6547 22.1108 27.6469 22.0925C27.6391 22.0743 27.6261 22.0587 27.6094 22.048C27.5928 22.0372 27.5733 22.0317 27.5535 22.032Z" fill="white"/>
<path d="M33.1629 20.2565C33.1372 20.2553 33.1122 20.2639 33.0928 20.2807C33.0736 20.2975 33.0614 20.3212 33.0592 20.3468C33.0588 20.3603 33.0613 20.3739 33.0664 20.3866C33.0714 20.3992 33.079 20.4108 33.0885 20.4204C33.0981 20.4301 33.1096 20.4378 33.1222 20.443C33.1348 20.4482 33.1483 20.4508 33.1619 20.4506C33.1875 20.4503 33.2119 20.4399 33.2298 20.4216C33.2478 20.4034 33.2579 20.3788 33.2578 20.3533C33.2582 20.3406 33.2561 20.3279 33.2515 20.3161C33.2468 20.3044 33.2399 20.2936 33.231 20.2846C33.2222 20.2755 33.2115 20.2684 33.1998 20.2635C33.1881 20.2587 33.1755 20.2563 33.1629 20.2565Z" fill="white"/>
<path d="M28.1086 22.0708C28.095 22.0708 28.0815 22.0736 28.0689 22.0791C28.0564 22.0846 28.0452 22.0925 28.0357 22.1024C28.0264 22.1124 28.0192 22.1241 28.0144 22.137C28.0097 22.1498 28.0077 22.1634 28.0084 22.177C28.01 22.2024 28.0213 22.2262 28.0401 22.2433C28.0588 22.2604 28.0835 22.2695 28.1089 22.2688C28.1343 22.268 28.1584 22.2574 28.1761 22.2391C28.1937 22.2209 28.2036 22.1965 28.2036 22.1711C28.2028 22.1456 28.1928 22.1213 28.1753 22.1029C28.1578 22.0843 28.1341 22.0729 28.1086 22.0708Z" fill="white"/>
<path d="M32.73 20.6064C32.7045 20.6077 32.6804 20.6187 32.6629 20.6372C32.6452 20.6556 32.6354 20.6802 32.6353 20.7058C32.6369 20.7312 32.6478 20.755 32.6662 20.7728C32.6844 20.7906 32.7087 20.8009 32.7341 20.8016C32.7597 20.8014 32.7842 20.7915 32.8027 20.7739C32.8212 20.7563 32.8324 20.7324 32.8339 20.707C32.8344 20.6933 32.8319 20.6797 32.8268 20.6671C32.8218 20.6544 32.8141 20.6431 32.8043 20.6335C32.7946 20.6241 32.7829 20.6167 32.7701 20.6121C32.7572 20.6074 32.7437 20.6055 32.73 20.6064Z" fill="white"/>
<path d="M24.4807 20.9244C24.467 20.9238 24.4534 20.9258 24.4406 20.9306C24.4278 20.9354 24.4161 20.9427 24.4063 20.9522C24.3964 20.9617 24.3886 20.9731 24.3834 20.9856C24.3781 20.9982 24.3756 21.0118 24.3757 21.0255C24.3752 21.038 24.3771 21.0508 24.3816 21.0626C24.386 21.0745 24.3928 21.0854 24.4017 21.0946C24.4105 21.1037 24.421 21.1109 24.4327 21.1159C24.4444 21.1209 24.457 21.1235 24.4696 21.1234C24.4823 21.1238 24.4949 21.1219 24.5068 21.1174C24.5187 21.113 24.5296 21.1063 24.5388 21.0975C24.5481 21.0889 24.5555 21.0784 24.5608 21.067C24.566 21.0554 24.5688 21.0429 24.5692 21.0301C24.5702 21.0047 24.5617 20.9797 24.5453 20.9602C24.529 20.9407 24.5059 20.9279 24.4807 20.9244Z" fill="white"/>
<path d="M23.5873 9.72329C23.6127 9.72112 23.6365 9.70943 23.6537 9.69058C23.6709 9.67185 23.6805 9.64726 23.6805 9.6217C23.6804 9.60806 23.6774 9.59463 23.6719 9.58217C23.6662 9.56972 23.658 9.55867 23.6479 9.54957C23.6378 9.54048 23.6258 9.53354 23.6128 9.52932C23.6 9.52499 23.5862 9.52358 23.5727 9.52488C23.56 9.52596 23.5476 9.52954 23.5365 9.53549C23.5253 9.54145 23.5154 9.54946 23.5074 9.55932C23.4992 9.56907 23.4932 9.58044 23.4896 9.59257C23.4859 9.6047 23.4848 9.61748 23.4862 9.63004C23.4882 9.65549 23.4997 9.67921 23.5184 9.69654C23.5372 9.71376 23.5618 9.7234 23.5873 9.72329Z" fill="white"/>
<path d="M21.1973 14.5416C21.2107 14.5429 21.2242 14.5415 21.237 14.5372C21.2498 14.533 21.2616 14.5263 21.2716 14.5173C21.2817 14.5083 21.2897 14.4974 21.2953 14.4851C21.3009 14.4728 21.3038 14.4596 21.304 14.4462C21.3049 14.4209 21.2959 14.3963 21.2788 14.3777C21.2617 14.3592 21.238 14.348 21.2127 14.3468C21.1857 14.3453 21.1592 14.3545 21.139 14.3725C21.1187 14.3905 21.1065 14.4157 21.1049 14.4428C21.1051 14.4678 21.1146 14.4919 21.1318 14.5102C21.1489 14.5285 21.1723 14.5397 21.1973 14.5416Z" fill="white"/>
<path d="M32.275 9.0342C32.2877 9.03387 32.3002 9.03095 32.3118 9.02564C32.3233 9.02033 32.3336 9.01286 32.3423 9.00355C32.351 8.99412 32.3576 8.98329 32.3619 8.97127C32.3663 8.95936 32.3682 8.94669 32.3675 8.93401C32.3669 8.90845 32.3562 8.88409 32.3377 8.86632C32.3192 8.84856 32.2945 8.83882 32.2689 8.83914C32.2555 8.83882 32.2423 8.8412 32.23 8.84607C32.2176 8.85105 32.2065 8.85853 32.1971 8.86784C32.1876 8.87737 32.1803 8.88853 32.1754 8.90098C32.1705 8.91333 32.1683 8.92665 32.1686 8.93997C32.169 8.95318 32.1722 8.96629 32.1778 8.97831C32.1835 8.99044 32.1915 9.00116 32.2015 9.01004C32.2115 9.01882 32.2231 9.02553 32.2357 9.02975C32.2484 9.03387 32.2617 9.03539 32.275 9.0342Z" fill="white"/>
<path d="M35.482 15.9807C35.4566 15.9818 35.4324 15.9925 35.4144 16.0106C35.3965 16.0287 35.3858 16.0528 35.3849 16.0783C35.3837 16.1039 35.3927 16.1288 35.4099 16.1477C35.427 16.1666 35.451 16.1779 35.4765 16.1792C35.4901 16.1803 35.5039 16.1785 35.5167 16.1738C35.5296 16.1692 35.5413 16.1618 35.551 16.1523C35.5609 16.1427 35.5684 16.1311 35.5734 16.1185C35.5783 16.1057 35.5806 16.092 35.5797 16.0784C35.5783 16.053 35.5675 16.029 35.5494 16.0109C35.5314 15.993 35.5074 15.9822 35.482 15.9807Z" fill="white"/>
<path d="M31.3252 21.4502C31.3116 21.4492 31.2979 21.4512 31.285 21.4558C31.2723 21.4606 31.2606 21.468 31.2508 21.4775C31.2411 21.487 31.2334 21.4986 31.2284 21.5113C31.2234 21.5239 31.2211 21.5376 31.2218 21.5512C31.2229 21.5768 31.2339 21.6011 31.2524 21.6186C31.2711 21.6363 31.2959 21.6459 31.3214 21.6455C31.3473 21.646 31.3724 21.6362 31.3911 21.6182C31.4097 21.6003 31.4204 21.5756 31.421 21.5497C31.4215 21.5238 31.4116 21.4988 31.3938 21.4801C31.3758 21.4615 31.3511 21.4507 31.3252 21.4502Z" fill="white"/>
<path d="M21.4718 16.6288C21.4709 16.6033 21.4601 16.5793 21.4418 16.5616C21.4234 16.5441 21.3989 16.5345 21.3735 16.5347C21.348 16.535 21.3237 16.5452 21.3058 16.5632C21.2878 16.5811 21.2776 16.6055 21.2773 16.631C21.2774 16.6445 21.2802 16.6579 21.2856 16.6705C21.2909 16.683 21.2987 16.6943 21.3085 16.7038C21.3182 16.7133 21.3298 16.7207 21.3424 16.7257C21.355 16.7306 21.3686 16.7331 21.3822 16.7328C21.4077 16.7305 21.4314 16.7184 21.4481 16.699C21.4648 16.6795 21.4733 16.6543 21.4718 16.6288Z" fill="white"/>
<path d="M21.305 15.5429C21.3044 15.5173 21.2939 15.4929 21.2757 15.4751C21.2574 15.4572 21.2329 15.447 21.2072 15.447C21.1937 15.4473 21.1802 15.4503 21.1679 15.4558C21.1554 15.4613 21.1442 15.4692 21.1349 15.479C21.1256 15.4888 21.1181 15.5004 21.1133 15.5131C21.1084 15.5259 21.1062 15.5393 21.1065 15.5529C21.1095 15.5783 21.1221 15.6016 21.1417 15.618C21.1613 15.6344 21.1864 15.6428 21.212 15.6414C21.2245 15.6413 21.2371 15.6387 21.2487 15.6336C21.2604 15.6285 21.2708 15.6213 21.2796 15.612C21.2882 15.6029 21.2949 15.5919 21.2993 15.58C21.3037 15.5682 21.3057 15.5555 21.305 15.5429Z" fill="white"/>
<path d="M21.5275 17.0662C21.5137 17.0652 21.5001 17.067 21.4872 17.0717C21.4744 17.0764 21.4627 17.0838 21.4528 17.0934C21.4431 17.1029 21.4355 17.1144 21.4304 17.1271C21.4254 17.1398 21.4233 17.1536 21.4239 17.1672C21.4241 17.1799 21.4267 17.1925 21.4318 17.204C21.4368 17.2157 21.4442 17.2262 21.4534 17.235C21.4625 17.2438 21.4733 17.2506 21.4852 17.2552C21.4971 17.2596 21.5097 17.2618 21.5225 17.2612C21.548 17.2617 21.5728 17.2519 21.5914 17.2343C21.6098 17.2165 21.6205 17.1921 21.6211 17.1666C21.6217 17.1409 21.6123 17.1161 21.5947 17.0974C21.5772 17.0785 21.553 17.0674 21.5275 17.0662Z" fill="white"/>
<path d="M22.4924 19.0296C22.4671 19.0316 22.4435 19.0433 22.4265 19.0622C22.4095 19.0812 22.4005 19.106 22.4014 19.1314C22.4015 19.1441 22.4041 19.1566 22.4092 19.1681C22.4141 19.1797 22.4214 19.1902 22.4304 19.199C22.4395 19.2078 22.4502 19.2146 22.4619 19.2193C22.4737 19.2239 22.4863 19.2261 22.4988 19.2258C22.5115 19.2262 22.5241 19.224 22.5359 19.2195C22.5477 19.2149 22.5584 19.208 22.5674 19.1991C22.5765 19.1903 22.5836 19.1797 22.5884 19.168C22.5933 19.1563 22.5957 19.1438 22.5956 19.1312C22.596 19.1176 22.5935 19.1041 22.5884 19.0916C22.5833 19.079 22.5757 19.0675 22.566 19.058C22.5563 19.0485 22.5449 19.0411 22.5322 19.0362C22.5196 19.0314 22.506 19.0291 22.4924 19.0296Z" fill="white"/>
<path d="M21.7123 17.5853C21.6998 17.5842 21.6871 17.5856 21.6751 17.5896C21.6632 17.5935 21.652 17.5999 21.6426 17.6083C21.6332 17.6166 21.6256 17.6269 21.6202 17.6384C21.6148 17.6498 21.6118 17.6621 21.6115 17.6748C21.61 17.6942 21.6142 17.7135 21.6237 17.7304C21.6333 17.7473 21.6477 17.761 21.6651 17.7698C21.6824 17.7784 21.702 17.7817 21.7212 17.7792C21.7406 17.7766 21.7586 17.7683 21.7731 17.7555C21.7876 17.7426 21.798 17.7256 21.8028 17.7068C21.8076 17.688 21.8067 17.6682 21.8002 17.6499C21.7937 17.6316 21.7818 17.6156 21.7662 17.6042C21.7505 17.5927 21.7317 17.5862 21.7123 17.5853Z" fill="white"/>
<path d="M34.8191 11.873C34.8445 11.8707 34.8681 11.859 34.8854 11.8402C34.9027 11.8214 34.9124 11.7969 34.9128 11.7715C34.9109 11.7459 34.8994 11.7221 34.8805 11.7048C34.8617 11.6875 34.8368 11.6781 34.8113 11.6785C34.7985 11.678 34.7859 11.6802 34.774 11.6847C34.7622 11.6893 34.7514 11.6962 34.7423 11.7051C34.7332 11.714 34.7259 11.7246 34.7211 11.7363C34.7162 11.748 34.7137 11.7605 34.7138 11.7733C34.7135 11.787 34.7161 11.8005 34.7213 11.8132C34.7266 11.8257 34.7344 11.8371 34.7444 11.8465C34.7542 11.8559 34.766 11.8631 34.7789 11.8676C34.7918 11.8722 34.8055 11.874 34.8191 11.873Z" fill="white"/>
<path d="M21.5119 12.922C21.5254 12.9229 21.5389 12.9208 21.5517 12.916C21.5644 12.9111 21.5759 12.9035 21.5854 12.8938C21.5949 12.8841 21.6023 12.8724 21.6069 12.8596C21.6114 12.8469 21.6132 12.8332 21.6122 12.8197C21.611 12.7943 21.5998 12.7704 21.5811 12.7533C21.5624 12.7361 21.5376 12.727 21.5123 12.7278C21.4997 12.7278 21.4872 12.7303 21.4756 12.7353C21.464 12.7402 21.4535 12.7473 21.4446 12.7563C21.4357 12.7653 21.4289 12.776 21.4243 12.7877C21.4196 12.7994 21.4173 12.812 21.4175 12.8247C21.4172 12.85 21.4271 12.8745 21.4446 12.8927C21.4624 12.911 21.4865 12.9215 21.5119 12.922Z" fill="white"/>
<path d="M22.194 18.5698C22.1814 18.5698 22.1691 18.5724 22.1575 18.5772C22.146 18.5821 22.1355 18.5894 22.1268 18.5985C22.1182 18.6076 22.1113 18.6183 22.107 18.6301C22.1026 18.6419 22.1006 18.6543 22.1011 18.6669C22.1011 18.6798 22.1037 18.6927 22.1088 18.7047C22.1139 18.7166 22.1214 18.7273 22.1307 18.7363C22.14 18.7453 22.1512 18.7525 22.1633 18.757C22.1753 18.7617 22.1883 18.7638 22.2012 18.7633C22.2142 18.7629 22.227 18.7598 22.2387 18.7543C22.2505 18.7488 22.261 18.741 22.2697 18.7313C22.2783 18.7217 22.285 18.7104 22.2892 18.6982C22.2935 18.6859 22.2951 18.6729 22.2943 18.66C22.2937 18.6474 22.2907 18.6351 22.2853 18.6237C22.28 18.6123 22.2724 18.6021 22.2631 18.5938C22.2537 18.5853 22.2428 18.579 22.231 18.5748C22.2191 18.5707 22.2065 18.569 22.194 18.5698Z" fill="white"/>
<path d="M25.9519 21.6594C25.9383 21.6592 25.9249 21.6618 25.9125 21.6671C25.9 21.6725 25.8887 21.6803 25.8794 21.6903C25.8702 21.7002 25.8632 21.712 25.8587 21.7247C25.8543 21.7376 25.8527 21.7513 25.8539 21.7647C25.8544 21.7773 25.8575 21.7896 25.863 21.801C25.8684 21.8124 25.876 21.8225 25.8855 21.8309C25.8949 21.8392 25.9058 21.8455 25.9179 21.8495C25.9298 21.8535 25.9423 21.855 25.9549 21.8541C25.9803 21.8532 26.0043 21.8424 26.0217 21.8238C26.0393 21.8055 26.0487 21.781 26.0482 21.7555C26.0476 21.7302 26.0373 21.706 26.0195 21.688C26.0015 21.6702 25.9773 21.6599 25.9519 21.6594Z" fill="white"/>
<path d="M29.1906 7.93506C29.2158 7.93278 29.2392 7.92109 29.256 7.90213C29.2729 7.88318 29.2818 7.85849 29.281 7.83325C29.2798 7.80791 29.2688 7.78397 29.2503 7.76654C29.2319 7.74921 29.2074 7.73968 29.182 7.74C29.1694 7.73979 29.1569 7.74228 29.1453 7.74693C29.1336 7.7517 29.123 7.75874 29.1141 7.76762C29.1051 7.7765 29.0981 7.78712 29.0933 7.7987C29.0884 7.8104 29.0861 7.82286 29.0862 7.83553C29.0858 7.84907 29.0885 7.86249 29.0937 7.87495C29.0989 7.88751 29.1067 7.89878 29.1165 7.90809C29.1263 7.91751 29.1379 7.92477 29.1507 7.92932C29.1635 7.93397 29.177 7.93592 29.1906 7.93506Z" fill="white"/>
<path d="M29.2083 22.0318C29.1829 22.0309 29.1581 22.04 29.1393 22.057C29.1205 22.0741 29.1091 22.098 29.1075 22.1233C29.1063 22.1427 29.1109 22.1621 29.1207 22.1789C29.1306 22.1958 29.1452 22.2092 29.1627 22.2178C29.1803 22.2262 29.2 22.2291 29.2193 22.2263C29.2384 22.2235 29.2564 22.215 29.2709 22.2019C29.2853 22.1888 29.2955 22.1717 29.3002 22.1529C29.3047 22.1339 29.3036 22.114 29.2969 22.0957C29.2902 22.0775 29.2782 22.0616 29.2624 22.0502C29.2466 22.0388 29.2277 22.0323 29.2083 22.0318Z" fill="white"/>
<path d="M8.15515 20.4952C8.98129 18.9147 9.88302 17.3567 10.6245 15.726C11.4409 13.9305 10.4198 12.0678 8.52035 11.6665C6.76919 11.2966 5.1571 12.4987 4.94342 14.3336C4.75464 15.9547 5.99504 17.3224 7.73666 17.4079C7.99768 17.4206 8.25999 17.4096 8.62259 17.4096L6.8189 20.495H8.15547L8.15515 20.4952ZM8.0202 16.4449C6.85692 16.4604 6.01064 15.6618 6.0036 14.5419C5.99666 13.4129 6.83677 12.5787 7.97103 12.5886C9.05916 12.5981 9.84056 13.3921 9.85183 14.4996C9.86331 15.6237 9.10378 16.4305 8.0202 16.4449Z" fill="white"/>
<path d="M2.83681 11.7104C2.22414 11.996 1.7957 12.1799 1.38209 12.3928C0.92288 12.6289 0.47732 12.8917 0.000244141 13.1571C0.0167062 13.5034 0.0313272 13.811 0.0488723 14.1842L1.66411 13.3916V19.6077H0.924396V20.4771H3.60111V19.6077H2.86324C2.86324 19.6077 2.86714 16.8501 2.86205 15.6051C2.85707 14.376 2.8849 13.1451 2.83681 11.7104Z" fill="white"/>
<path d="M12.2578 8.55396H0.0464935V9.14572H12.2578V8.55396Z" fill="white"/>
<path d="M12.2578 22.9927H0.0464935V23.5844H12.2578V22.9927Z" fill="white"/>
<path d="M59.0802 8.55396H45.1544V9.14572H59.0802V8.55396Z" fill="white"/>
<path d="M59.0802 22.9927H45.1544V23.5844H59.0802V22.9927Z" fill="white"/>
<path d="M45.9964 18.1329C45.996 18.5903 46.1154 19.0399 46.343 19.4367C46.5706 19.8335 46.8984 20.1637 47.2935 20.3942C47.6885 20.6248 48.1371 20.7476 48.5946 20.7505C49.052 20.7534 49.5022 20.6364 49.9002 20.4108C50.2982 20.1853 50.6301 19.8593 50.8626 19.4654C51.0952 19.0716 51.2205 18.6235 51.2257 18.1662C51.2311 17.7087 51.1162 17.2579 50.8929 16.8587C50.6695 16.4596 50.3452 16.126 49.9526 15.8914C50.3606 15.606 50.667 15.198 50.8273 14.7266C50.9876 14.2552 50.9933 13.745 50.8437 13.27C50.6942 12.7951 50.397 12.3803 49.9955 12.0858C49.594 11.7913 49.1092 11.6326 48.6113 11.6326C48.1133 11.6326 47.6284 11.7913 47.2268 12.0858C46.8255 12.3803 46.5283 12.7951 46.3787 13.27C46.2292 13.745 46.2349 14.2552 46.3952 14.7266C46.5555 15.198 46.8619 15.606 47.2698 15.8914C46.8818 16.1228 46.5604 16.4511 46.3371 16.8439C46.1139 17.2369 45.9965 17.681 45.9964 18.1329ZM47.2 13.9748C47.1998 13.6981 47.2808 13.4275 47.4331 13.1965C47.5854 12.9655 47.8023 12.7844 48.0567 12.6755C48.3111 12.5668 48.5919 12.5353 48.8641 12.5849C49.1363 12.6345 49.3879 12.7629 49.5878 12.9544C49.7875 13.1459 49.9266 13.3918 49.9876 13.6616C50.0487 13.9315 50.0291 14.2134 49.9313 14.4723C49.8335 14.7311 49.6617 14.9554 49.4374 15.1174C49.213 15.2794 48.9462 15.3718 48.6697 15.3833C48.6501 15.3828 48.6309 15.3804 48.6113 15.3804C48.5916 15.3804 48.5725 15.3828 48.5529 15.3833C48.1892 15.3686 47.8453 15.2137 47.5931 14.9512C47.3409 14.6887 47.2001 14.3388 47.2 13.9747V13.9748ZM48.6112 16.4446C48.9452 16.4446 49.2715 16.5436 49.5492 16.7291C49.8269 16.9146 50.0433 17.1782 50.1711 17.4868C50.2989 17.7953 50.3322 18.1348 50.2671 18.4623C50.2019 18.7898 50.0412 19.0907 49.805 19.3268C49.5689 19.5629 49.268 19.7237 48.9406 19.7889C48.613 19.854 48.2736 19.8205 47.9652 19.6927C47.6566 19.565 47.3929 19.3485 47.2075 19.0708C47.0218 18.7933 46.9228 18.4668 46.9228 18.1329C46.9228 17.6851 47.1007 17.2557 47.4174 16.939C47.734 16.6224 48.1635 16.4445 48.6113 16.4445L48.6112 16.4446Z" fill="white"/>
<path d="M55.7006 20.7379C55.0786 20.7379 54.5462 20.5775 54.1031 20.2567C53.6601 19.9359 53.3064 19.4909 53.0423 18.9216L53.7964 18.4094C54.0009 18.8544 54.2607 19.2063 54.576 19.465C54.8912 19.7133 55.2789 19.8376 55.7389 19.8376C56.2331 19.8376 56.6165 19.6979 56.8892 19.4184C57.1704 19.1286 57.311 18.7354 57.311 18.2386C57.311 17.6281 57.1277 17.1779 56.7613 16.8881C56.395 16.5983 55.8242 16.4535 55.0488 16.4535V15.5686C55.7559 15.5686 56.2928 15.4341 56.6592 15.165C57.0255 14.8959 57.2087 14.4924 57.2087 13.9542C57.2087 13.5403 57.0851 13.2091 56.838 12.9606C56.591 12.7123 56.2331 12.5881 55.7645 12.5881C55.3214 12.5881 54.9424 12.7227 54.6271 12.9917C54.3118 13.2608 54.086 13.6282 53.9498 14.0939L53.183 13.6593C53.3278 13.2453 53.5237 12.8934 53.7707 12.6037C54.0179 12.314 54.3118 12.0914 54.6527 11.9362C54.9935 11.7706 55.3683 11.6877 55.7773 11.6877C56.4844 11.6877 57.0468 11.8896 57.4642 12.2932C57.8903 12.6968 58.1033 13.235 58.1033 13.9076C58.1033 14.3216 58.0139 14.6889 57.8349 15.0097C57.6645 15.3306 57.426 15.5842 57.1192 15.7705C56.821 15.9566 56.4844 16.0551 56.1096 16.0654V15.8946C56.7315 15.8946 57.2427 16.1067 57.6432 16.5311C58.0522 16.9554 58.2567 17.5245 58.2567 18.2386C58.2567 18.756 58.1544 19.2011 57.9499 19.5736C57.7455 19.9462 57.4514 20.236 57.068 20.443C56.6846 20.6395 56.2289 20.7379 55.7006 20.7379Z" fill="white"/>
</g>
<defs>
<clipPath id="clip0_1_556">
<rect width="59.1336" height="30" fill="white" transform="translate(0.000244141)"/>
</clipPath>
</defs>
</svg>
