<svg width="50" height="50" viewBox="0 0 50 50" fill="none" xmlns="http://www.w3.org/2000/svg">
<g clip-path="url(#clip0_1_79)">
<path d="M25.1594 6.24683H25.4375C28.0063 6.2562 41.0219 6.34995 44.5313 7.2937C45.5922 7.58173 46.5589 8.14315 47.3349 8.92185C48.1108 9.70056 48.6688 10.6693 48.9531 11.7312C49.2688 12.9187 49.4906 14.4906 49.6406 16.1125L49.6719 16.4375L49.7406 17.25L49.7656 17.575C49.9688 20.4312 49.9938 23.1062 49.9969 23.6906V23.925C49.9938 24.5312 49.9656 27.3874 49.7406 30.3624L49.7156 30.6906L49.6875 31.0156C49.5313 32.8031 49.3 34.5781 48.9531 35.8843C48.6697 36.9467 48.112 37.9159 47.3359 38.6947C46.5598 39.4735 45.5926 40.0347 44.5313 40.3218C40.9063 41.2968 27.1281 41.3656 25.2188 41.3687H24.775C23.8094 41.3687 19.8156 41.35 15.6281 41.2062L15.0969 41.1875L14.825 41.1749L14.2906 41.1531L13.7563 41.1312C10.2875 40.9781 6.98438 40.7312 5.4625 40.3187C4.40153 40.0318 3.43458 39.4711 2.65851 38.6929C1.88245 37.9146 1.32452 36.9461 1.04063 35.8843C0.69375 34.5812 0.4625 32.8031 0.30625 31.0156L0.28125 30.6875L0.25625 30.3624C0.102024 28.2449 0.0165621 26.123 0 24L0 23.6156C0.00625 22.9437 0.03125 20.6218 0.2 18.0593L0.221875 17.7375L0.23125 17.575L0.25625 17.25L0.325 16.4375L0.35625 16.1125C0.50625 14.4906 0.728125 12.9156 1.04375 11.7312C1.32717 10.6688 1.88488 9.69967 2.66098 8.92083C3.43708 8.14199 4.40428 7.58086 5.46563 7.2937C6.9875 6.88745 10.2906 6.63745 13.7594 6.4812L14.2906 6.45933L14.8281 6.44058L15.0969 6.4312L15.6313 6.40933C18.6053 6.31362 21.5806 6.26049 24.5563 6.24995H25.1594V6.24683ZM20 16.2781V31.3343L32.9906 23.8093L20 16.2781Z" fill="#999999"/>
</g>
<defs>
<clipPath id="clip0_1_79">
<rect width="50" height="50" fill="white"/>
</clipPath>
</defs>
</svg>
