<svg width="32" height="32" viewBox="0 0 32 32" fill="none" xmlns="http://www.w3.org/2000/svg">
<g clip-path="url(#clip0_1_52)">
<circle cx="16" cy="16" r="15.75" stroke="#21A038" stroke-width="0.5"/>
<path d="M14.5691 15.5599C14.5691 15.8219 14.3571 16.0339 14.0951 16.0339C13.8331 16.0339 13.6211 15.8219 13.6211 15.5599C13.6211 15.2979 13.8331 15.0859 14.0951 15.0859C14.3571 15.0859 14.5691 15.2979 14.5691 15.5599Z" fill="#21A038"/>
<path d="M16.6472 15.5599C16.6472 15.8219 16.4352 16.0339 16.1732 16.0339C15.9112 16.0339 15.6992 15.8219 15.6992 15.5599C15.6992 15.2979 15.9112 15.0859 16.1732 15.0859C16.4352 15.0859 16.6472 15.2979 16.6472 15.5599Z" fill="#21A038"/>
<path d="M18.7253 15.5599C18.7253 15.8219 18.5133 16.0339 18.2513 16.0339C17.9893 16.0339 17.7773 15.8219 17.7773 15.5599C17.7773 15.2979 17.9893 15.0859 18.2513 15.0859C18.5133 15.0859 18.7253 15.2979 18.7253 15.5599Z" fill="#21A038"/>
<path d="M14.0951 16.9951C13.8331 16.9951 13.6211 17.2071 13.6211 17.4691C13.6211 17.7311 13.8331 17.9431 14.0951 17.9431C14.3571 17.9431 14.5691 17.7311 14.5691 17.4691C14.5691 17.2071 14.3571 16.9951 14.0951 16.9951Z" fill="#21A038"/>
<path d="M16.1732 16.9951C15.9112 16.9951 15.6992 17.2071 15.6992 17.4691C15.6992 17.7311 15.9112 17.9431 16.1732 17.9431C16.4352 17.9431 16.6472 17.7311 16.6472 17.4691C16.6472 17.2071 16.4352 16.9951 16.1732 16.9951Z" fill="#21A038"/>
<path d="M18.2513 16.9951C17.9893 16.9951 17.7773 17.2071 17.7773 17.4691C17.7773 17.7311 17.9893 17.9431 18.2513 17.9431C18.5133 17.9431 18.7253 17.7311 18.7253 17.4691C18.7253 17.2071 18.5133 16.9951 18.2513 16.9951Z" fill="#21A038"/>
<path d="M14.5691 19.267C14.5691 19.529 14.3571 19.741 14.0951 19.741C13.8331 19.741 13.6211 19.529 13.6211 19.267C13.6211 19.005 13.8331 18.793 14.0951 18.793C14.3571 18.793 14.5691 19.005 14.5691 19.267Z" fill="#21A038"/>
<path d="M16.6472 19.267C16.6472 19.529 16.4352 19.741 16.1732 19.741C15.9112 19.741 15.6992 19.529 15.6992 19.267C15.6992 19.005 15.9112 18.793 16.1732 18.793C16.4352 18.793 16.6472 19.005 16.6472 19.267Z" fill="#21A038"/>
<path d="M18.7253 19.267C18.7253 19.529 18.5133 19.741 18.2513 19.741C17.9893 19.741 17.7773 19.529 17.7773 19.267C17.7773 19.005 17.9893 18.793 18.2513 18.793C18.5133 18.793 18.7253 19.005 18.7253 19.267Z" fill="#21A038"/>
<path d="M24.331 12.6C24.329 12.595 24.328 12.59 24.326 12.586C23.633 10.49 21.693 9.003 19.405 9H12.665C10.378 9.003 8.439 10.491 7.759 12.55L7.749 12.587C7.747 12.591 7.746 12.595 7.744 12.6C7.589 13.068 7.5 13.606 7.5 14.166C7.5 14.538 7.802 14.84 8.174 14.84H11.173L9.793 17.137C9.286 17.968 8.985 18.974 8.985 20.049V20.691C8.986 21.583 9.709 22.307 10.602 22.308H21.887C22.779 22.307 23.503 21.584 23.504 20.691C23.504 20.688 23.504 20.685 23.504 20.681C23.504 19.207 23.04 17.842 22.25 16.723L22.264 16.745L20.936 14.84H23.909C24.277 14.84 24.575 14.541 24.576 14.173C24.576 13.611 24.486 13.071 24.32 12.565L24.33 12.601L24.331 12.6ZM12.665 9.561H19.405C21.318 9.563 22.958 10.729 23.656 12.389L23.667 12.419H19.764C19.32 11.911 18.671 11.593 17.948 11.593C17.947 11.593 17.946 11.593 17.945 11.593H14.043C13.322 11.596 12.676 11.914 12.235 12.417L12.233 12.42H8.407C9.114 10.73 10.753 9.564 12.664 9.562L12.665 9.561ZM8.061 14.165C8.063 13.743 8.121 13.336 8.229 12.949L8.221 12.981H11.863C11.745 13.222 11.665 13.504 11.639 13.8L11.638 13.809C11.621 13.983 11.571 14.141 11.495 14.284L11.498 14.277H8.173C8.111 14.277 8.06 14.227 8.06 14.164L8.061 14.165ZM22.943 20.69C22.942 21.272 22.47 21.744 21.888 21.745H10.603C10.021 21.744 9.549 21.272 9.548 20.69V20.048C9.548 19.079 9.819 18.173 10.288 17.402L10.275 17.425L11.862 14.782C11.927 14.736 11.97 14.664 11.978 14.582C12.095 14.372 12.174 14.124 12.198 13.862L12.199 13.855C12.284 12.902 13.077 12.16 14.044 12.155H17.947C18.936 12.155 19.746 12.932 19.796 13.909V13.913C19.806 14.112 19.872 14.294 19.979 14.445L19.977 14.442L21.806 17.065C22.519 18.073 22.945 19.327 22.945 20.681C22.945 20.684 22.945 20.687 22.945 20.691L22.943 20.69ZM23.91 14.277H20.545L20.436 14.12C20.389 14.054 20.36 13.973 20.355 13.885V13.884C20.338 13.553 20.257 13.245 20.124 12.966L20.13 12.981H23.853C23.954 13.338 24.013 13.748 24.015 14.171V14.172C24.015 14.23 23.968 14.277 23.91 14.277Z" fill="#21A038"/>
</g>
<defs>
<clipPath id="clip0_1_52">
<rect width="32" height="32" fill="white"/>
</clipPath>
</defs>
</svg>
