<svg width="32" height="32" viewBox="0 0 32 32" fill="none" xmlns="http://www.w3.org/2000/svg">
<g clip-path="url(#clip0_1_67)">
<path d="M23.967 11.5026C23.965 11.5006 23.965 11.4986 23.964 11.4966C23.961 11.4926 23.955 11.4906 23.952 11.4856C23.603 11.0946 23.097 10.8496 22.534 10.8486H11.997C11.434 10.8486 10.928 11.0936 10.581 11.4836L10.579 11.4856C10.575 11.4896 10.57 11.4916 10.567 11.4966C10.565 11.4986 10.565 11.5006 10.564 11.5036C10.27 11.8356 10.091 12.2756 10.091 12.7566V15.7206H7.84201C7.68701 15.7216 7.56201 15.8466 7.56201 16.0016C7.56201 16.1566 7.68701 16.2816 7.84201 16.2826H10.091V17.8086H9.10701H9.10601C8.95101 17.8086 8.82501 17.9346 8.82501 18.0896C8.82501 18.2446 8.95101 18.3706 9.10601 18.3706H9.10701H10.091V19.2466C10.092 20.2996 10.945 21.1526 11.998 21.1536H22.535C23.588 21.1526 24.441 20.2996 24.442 19.2466V12.7576C24.442 12.2766 24.263 11.8366 23.967 11.5026ZM22.534 11.4096C22.822 11.4096 23.089 11.5016 23.307 11.6566L23.303 11.6536L17.938 15.8176C17.754 15.9616 17.52 16.0476 17.266 16.0476C17.012 16.0476 16.778 15.9606 16.592 15.8156L16.594 15.8176L11.229 11.6536C11.443 11.5016 11.71 11.4096 11.997 11.4096H22.534ZM23.879 19.2436C23.878 19.9866 23.276 20.5876 22.534 20.5886H11.997C11.254 20.5876 10.653 19.9856 10.652 19.2436V18.3676H13.407H13.408C13.563 18.3676 13.689 18.2416 13.689 18.0866C13.689 17.9316 13.563 17.8056 13.408 17.8056H13.407H10.652V12.7546C10.653 12.5006 10.726 12.2636 10.85 12.0626L10.847 12.0686L16.25 16.2616C16.528 16.4786 16.882 16.6096 17.266 16.6096C17.65 16.6096 18.005 16.4786 18.286 16.2586L18.282 16.2616L23.685 12.0686C23.806 12.2646 23.878 12.5006 23.88 12.7546L23.879 19.2436Z" fill="#21A038"/>
<circle cx="16" cy="16" r="15.75" stroke="#21A038" stroke-width="0.5"/>
</g>
<defs>
<clipPath id="clip0_1_67">
<rect width="32" height="32" fill="white"/>
</clipPath>
</defs>
</svg>
