<svg width="32" height="32" viewBox="0 0 32 32" fill="none" xmlns="http://www.w3.org/2000/svg">
<g clip-path="url(#clip0_1_72)">
<path d="M17.913 19.4055L20.524 15.8515C21.144 15.0525 21.517 14.0355 21.517 12.9315C21.517 12.9255 21.517 12.9195 21.517 12.9145V12.9155C21.507 11.3565 20.845 9.95446 19.791 8.96646L19.788 8.96346C18.829 8.07046 17.538 7.52246 16.119 7.52246C13.25 7.52246 10.904 9.76346 10.738 12.5915L10.737 12.6065C10.731 12.6985 10.728 12.8065 10.728 12.9145C10.728 14.1185 11.122 15.2315 11.788 16.1295L11.778 16.1145L14.041 19.4105C10.237 19.6165 6.55798 20.4515 6.55798 21.9185C6.55798 23.5815 11.423 24.4795 16 24.4795C20.577 24.4795 25.442 23.5815 25.442 21.9185C25.442 20.4195 21.731 19.5895 17.913 19.4055ZM11.298 12.6365C11.441 10.2045 13.365 8.26346 15.777 8.09546L15.792 8.09446C15.9033 8.08713 16.0143 8.08346 16.125 8.08346C16.129 8.08346 16.134 8.08346 16.14 8.08346C17.404 8.08346 18.554 8.57446 19.408 9.37646L19.405 9.37446C20.353 10.2635 20.946 11.5205 20.955 12.9165V12.9185C20.954 13.8915 20.628 14.7885 20.081 15.5065L20.089 15.4965L15.924 21.1635L12.235 15.7885C11.644 15.0015 11.288 14.0085 11.288 12.9325C11.288 12.8285 11.291 12.7265 11.298 12.6245L11.297 12.6385L11.298 12.6365ZM16 23.9175C10.498 23.9175 7.11898 22.7535 7.11898 21.9185C7.11898 21.6115 7.64898 21.1295 9.13498 20.7005C10.703 20.2785 12.515 20.0095 14.38 19.9555L14.414 19.9545L15.383 21.3665H12.822C12.667 21.3665 12.541 21.4925 12.541 21.6475C12.541 21.8025 12.667 21.9285 12.822 21.9285H18.93C19.085 21.9285 19.211 21.8025 19.211 21.6475C19.211 21.4925 19.085 21.3665 18.93 21.3665H16.472L17.512 19.9505C22.064 20.1175 24.88 21.0985 24.88 21.9185C24.88 22.7535 21.502 23.9175 16 23.9175Z" fill="#21A038"/>
<path d="M17.2828 13.0379C17.2828 13.6789 16.7638 14.1979 16.1228 14.1979C15.4818 14.1979 14.9628 13.6789 14.9628 13.0379C14.9628 12.3969 15.4818 11.8779 16.1228 11.8779C16.7638 11.8779 17.2828 12.3969 17.2828 13.0379Z" fill="#21A038"/>
<circle cx="16" cy="16" r="15.75" stroke="#21A038" stroke-width="0.5"/>
</g>
<defs>
<clipPath id="clip0_1_72">
<rect width="32" height="32" fill="white"/>
</clipPath>
</defs>
</svg>
