<svg width="50" height="50" viewBox="0 0 50 50" fill="none" xmlns="http://www.w3.org/2000/svg">
<path d="M25.0003 4.16699C13.5003 4.16699 4.16699 13.5003 4.16699 25.0003C4.16699 36.5003 13.5003 45.8337 25.0003 45.8337C36.5003 45.8337 45.8337 36.5003 45.8337 25.0003C45.8337 13.5003 36.5003 4.16699 25.0003 4.16699ZM34.667 18.3337C34.3545 21.6253 33.0003 29.6253 32.3128 33.3128C32.0212 34.8753 31.4378 35.3962 30.8962 35.4587C29.6878 35.5628 28.7712 34.667 27.6045 33.8962C25.7712 32.6878 24.7295 31.9378 22.9587 30.7712C20.8962 29.417 22.2295 28.667 23.417 27.4587C23.7295 27.1462 29.0628 22.292 29.167 21.8545C29.1815 21.7882 29.1795 21.7194 29.1614 21.6541C29.1432 21.5887 29.1094 21.5288 29.0628 21.4795C28.9378 21.3753 28.7712 21.417 28.6253 21.4378C28.4378 21.4795 25.5212 23.417 19.8337 27.2503C19.0003 27.8128 18.2503 28.1045 17.5837 28.0837C16.8337 28.0628 15.417 27.667 14.3545 27.3128C13.042 26.8962 12.0212 26.667 12.1045 25.9378C12.1462 25.5628 12.667 25.1878 13.6462 24.792C19.7295 22.1462 23.7712 20.3962 25.792 19.5628C31.5837 17.1462 32.7712 16.7295 33.5628 16.7295C33.7295 16.7295 34.1253 16.7712 34.3753 16.9795C34.5837 17.1462 34.6462 17.3753 34.667 17.542C34.6462 17.667 34.6878 18.042 34.667 18.3337Z" fill="#999999"/>
</svg>
