<svg width="50" height="50" viewBox="0 0 50 50" fill="none" xmlns="http://www.w3.org/2000/svg">
<path d="M31.4024 4.16699H18.6191C6.94408 4.16699 4.16699 6.94408 4.16699 18.5982V31.3816C4.16699 43.0545 6.92324 45.8337 18.5982 45.8337H31.3816C43.0545 45.8337 45.8337 43.0774 45.8337 31.4024V18.6191C45.8337 6.94408 43.0774 4.16699 31.4024 4.16699ZM37.8045 33.8962H34.7649C33.6149 33.8962 33.2691 32.9649 31.2066 30.9024C29.4066 29.167 28.6462 28.9503 28.1899 28.9503C27.5607 28.9503 27.3878 29.1232 27.3878 29.992V32.7253C27.3878 33.4649 27.1482 33.8982 25.217 33.8982C23.3427 33.7723 21.5252 33.2029 19.9141 32.2369C18.303 31.2708 16.9444 29.9359 15.9503 28.342C13.5903 25.4045 11.9481 21.9569 11.1545 18.2732C11.1545 17.817 11.3274 17.4045 12.1962 17.4045H15.2337C16.0149 17.4045 16.2962 17.7524 16.6024 18.5545C18.0774 22.8962 20.5941 26.6712 21.6149 26.6712C22.0066 26.6712 22.1774 26.4982 22.1774 25.5212V21.0503C22.0482 19.0107 20.9649 18.8378 20.9649 18.1003C20.9788 17.9058 21.068 17.7244 21.2134 17.5944C21.3589 17.4645 21.5492 17.3964 21.7441 17.4045H26.5191C27.1712 17.4045 27.3878 17.7295 27.3878 18.5107V24.5441C27.3878 25.1962 27.6691 25.4128 27.8649 25.4128C28.2566 25.4128 28.5587 25.1962 29.2753 24.4795C30.8146 22.6023 32.0723 20.5109 33.0087 18.2712C33.1044 18.0021 33.2855 17.7718 33.5243 17.6153C33.7632 17.4588 34.0467 17.3848 34.3316 17.4045H37.3712C38.2816 17.4045 38.4753 17.8607 38.2816 18.5107C37.1763 20.9866 35.8088 23.3369 34.2024 25.5212C33.8753 26.0212 33.7441 26.2816 34.2024 26.867C34.5045 27.3232 35.5691 28.2128 36.2857 29.0587C37.3272 30.0975 38.1921 31.2994 38.8462 32.617C39.1066 33.4628 38.6712 33.8962 37.8045 33.8962Z" fill="#999999"/>
</svg>
