<svg width="160" height="26" viewBox="0 0 160 26" fill="none" xmlns="http://www.w3.org/2000/svg">
<path d="M43.0778 11.2005H39.4885L38.789 13.6109H35.9454L39.6329 2.63843H43.0472L46.7353 13.6109H43.7698L43.0778 11.2005ZM40.0286 9.19265H42.5302L41.3138 4.96507H41.2525L40.0286 9.19265Z" fill="white"/>
<path d="M50.3703 2.09106H47.6786V13.6111H50.3703V2.09106Z" fill="white"/>
<path d="M57.0854 5.03418C58.155 5.03418 58.9864 5.41424 59.5796 6.17437C60.1778 6.93512 60.4766 8.00217 60.4766 9.37553C60.4766 10.7495 60.1803 11.8166 59.5871 12.5773C58.9989 13.3424 58.175 13.725 57.1155 13.725C55.8434 13.725 54.9788 13.2055 54.5225 12.1666H54.4694V16.1892H51.7777V5.14795H54.4544V6.6307H54.5075C54.7207 6.12874 55.0526 5.73867 55.5039 5.45988C55.9546 5.17608 56.4822 5.03418 57.0854 5.03418ZM56.089 11.604C56.586 11.604 56.9817 11.4034 57.2755 11.0033C57.5693 10.5976 57.7162 10.055 57.7162 9.37553C57.7162 8.70167 57.5693 8.16408 57.2755 7.76401C56.9761 7.35832 56.581 7.15516 56.089 7.15516C55.5977 7.15516 55.202 7.35832 54.9032 7.76401C54.6088 8.16908 54.4619 8.70917 54.4619 9.38365C54.4619 10.0625 54.6088 10.6026 54.9032 11.0033C55.197 11.4034 55.5927 11.604 56.089 11.604Z" fill="white"/>
<path d="M61.6108 2.09106H64.2494V6.73684H64.3025C64.7589 5.58102 65.6684 5.00342 67.0324 5.00342C67.975 5.00342 68.7151 5.28472 69.2527 5.84732C69.7903 6.41491 70.0585 7.19817 70.0585 8.19708V13.6111H67.3593V8.77468C67.3593 8.28835 67.2274 7.90328 66.9636 7.61886C66.6954 7.34006 66.3304 7.20067 65.869 7.20067C65.4077 7.20067 65.0327 7.35319 64.7432 7.65699C64.4494 7.96642 64.3025 8.36211 64.3025 8.84344V13.6111H61.6108V2.09106Z" fill="white"/>
<path d="M74.8498 11.8551C75.2961 11.8551 75.6712 11.7357 75.975 11.4975C76.2944 11.2544 76.4544 10.9424 76.4544 10.5624V9.97666L74.8954 10.0835C74.1046 10.1392 73.7089 10.438 73.7089 10.9806C73.7089 11.2494 73.8133 11.4625 74.0209 11.6194C74.224 11.7763 74.5003 11.8551 74.8498 11.8551ZM73.8996 13.7254C73.0932 13.7254 72.4194 13.4872 71.8768 13.0109C71.3192 12.5296 71.0404 11.9132 71.0404 11.1631C71.0404 9.57659 72.1831 8.71207 74.4697 8.57017L76.4544 8.44828V7.96194C76.4544 7.62251 76.34 7.35872 76.1119 7.17119C75.8893 6.98866 75.5849 6.89739 75.1998 6.89739C74.8398 6.89739 74.5403 6.98366 74.3022 7.15556C74.074 7.32309 73.9396 7.54125 73.8996 7.81004H71.4736C71.5092 6.95303 71.8743 6.26604 72.5688 5.74908C73.2682 5.22711 74.1884 4.96582 75.3286 4.96582C76.4544 4.96582 77.3614 5.22711 78.0509 5.74908C78.7404 6.27604 79.0855 6.96553 79.0855 7.81755V13.6116H76.4694V12.3952H76.4163C76.1931 12.8109 75.8462 13.1378 75.3742 13.376C74.9185 13.6091 74.4266 13.7254 73.8996 13.7254Z" fill="white"/>
<path d="M83.5809 5.14831H86.1969V6.77545H86.2501C86.417 6.23286 86.7189 5.80216 87.1546 5.48274C87.5909 5.16331 88.0954 5.00391 88.668 5.00391C89.2968 5.00391 89.8163 5.15831 90.227 5.46773C90.6377 5.78216 90.9033 6.22536 91.0252 6.79858H91.0784C91.2459 6.25099 91.5653 5.81467 92.0367 5.49024C92.513 5.16581 93.0656 5.00391 93.6944 5.00391C94.5208 5.00391 95.1897 5.2677 95.7017 5.79466C96.2136 6.32725 96.4699 7.02174 96.4699 7.87814V13.6116H93.7776V8.56262C93.7776 7.64997 93.3725 7.19365 92.5611 7.19365C92.1811 7.19365 91.8791 7.32054 91.6566 7.57371C91.4284 7.8275 91.314 8.16693 91.314 8.59263V13.6116H88.7442V8.52449C88.7442 8.0988 88.6373 7.76937 88.4248 7.5362C88.2166 7.30804 87.9178 7.19365 87.5272 7.19365C87.1521 7.19365 86.8483 7.32304 86.6151 7.58184C86.387 7.84 86.2726 8.18256 86.2726 8.60826V13.6116H83.5809V5.14831Z" fill="white"/>
<path d="M101.26 11.8551C101.707 11.8551 102.082 11.7357 102.386 11.4975C102.706 11.2544 102.865 10.9424 102.865 10.5624V9.97666L101.306 10.0835C100.515 10.1392 100.12 10.438 100.12 10.9806C100.12 11.2494 100.224 11.4625 100.432 11.6194C100.635 11.7763 100.911 11.8551 101.26 11.8551ZM100.31 13.7254C99.5039 13.7254 98.83 13.4872 98.2874 13.0109C97.7298 12.5296 97.451 11.9132 97.451 11.1631C97.451 9.57659 98.5943 8.71207 100.88 8.57017L102.865 8.44828V7.96194C102.865 7.62251 102.751 7.35872 102.523 7.17119C102.3 6.98866 101.996 6.89739 101.61 6.89739C101.25 6.89739 100.952 6.98366 100.713 7.15556C100.485 7.32309 100.351 7.54125 100.31 7.81004H97.8842C97.9198 6.95303 98.2849 6.26604 98.9794 5.74908C99.6789 5.22711 100.599 4.96582 101.74 4.96582C102.865 4.96582 103.773 5.22711 104.462 5.74908C105.151 6.27604 105.496 6.96553 105.496 7.81755V13.6116H102.88V12.3952H102.827C102.604 12.8109 102.257 13.1378 101.786 13.376C101.329 13.6091 100.837 13.7254 100.31 13.7254Z" fill="white"/>
<path d="M106.843 5.14795H109.459V6.73696H109.512C109.821 5.60177 110.488 5.03418 111.512 5.03418C111.755 5.03418 111.983 5.06919 112.196 5.14045V7.45208C111.963 7.35082 111.674 7.30018 111.329 7.30018C110.751 7.30018 110.308 7.45708 109.998 7.77151C109.689 8.09094 109.534 8.54726 109.534 9.13986V13.6112H106.843V5.14795Z" fill="white"/>
<path d="M118.325 5.14782H121.337L118.295 8.77468L121.512 13.6111H118.409L116.303 10.3868L115.786 10.9875V13.6111H113.094V2.09106H115.786V8.38711H115.839L118.325 5.14782Z" fill="white"/>
<path d="M125.603 6.88239C125.173 6.88239 124.81 7.02679 124.516 7.31559C124.222 7.60438 124.057 7.97445 124.022 8.42577H127.17C127.144 7.95944 126.99 7.58438 126.706 7.30058C126.417 7.02179 126.049 6.88239 125.603 6.88239ZM129.664 10.9499C129.532 11.817 129.106 12.5065 128.386 13.0184C127.661 13.5354 126.752 13.7942 125.656 13.7942C124.318 13.7942 123.268 13.4066 122.508 12.6308C121.748 11.8551 121.368 10.7855 121.368 9.42156C121.368 8.05821 121.745 6.97303 122.501 6.16727C123.256 5.36651 124.277 4.96582 125.565 4.96582C126.827 4.96582 127.836 5.34838 128.591 6.11414C129.342 6.88489 129.717 7.91381 129.717 9.20153V9.96915H123.991V10.1367C123.991 10.6536 124.148 11.0718 124.462 11.3913C124.777 11.7157 125.188 11.8782 125.695 11.8782C126.5 11.8782 127.012 11.5688 127.23 10.9499H129.664Z" fill="white"/>
<path d="M134.166 3.27734V5.14766H135.695V7.13986H134.166V10.7517C134.166 11.3449 134.493 11.6412 135.147 11.6412C135.334 11.6412 135.517 11.6287 135.695 11.6037V13.5197C135.385 13.5909 134.99 13.6259 134.508 13.6259C133.424 13.6259 132.645 13.4434 132.174 13.0784C131.708 12.7189 131.474 12.1232 131.474 11.2918V7.13986H130.341V5.14766H131.474V3.27734H134.166Z" fill="white"/>
<path d="M136.874 5.14829H139.573V13.6116H136.874V5.14829ZM138.22 4.4488C137.834 4.4488 137.51 4.32191 137.246 4.06874C136.973 3.81495 136.836 3.49802 136.836 3.11796C136.836 2.74289 136.973 2.42597 137.246 2.1678C137.51 1.91401 137.834 1.78711 138.22 1.78711C138.605 1.78711 138.932 1.91401 139.201 2.1678C139.474 2.42597 139.611 2.74289 139.611 3.11796C139.611 3.49802 139.474 3.81495 139.201 4.06874C138.937 4.32191 138.61 4.4488 138.22 4.4488Z" fill="white"/>
<path d="M140.943 5.14831H143.558V6.73732H143.612C144.078 5.5815 144.978 5.00391 146.311 5.00391C147.254 5.00391 147.994 5.2852 148.532 5.8478C149.064 6.41039 149.33 7.19115 149.33 8.19006V13.6116H146.631V8.76766C146.631 8.27633 146.504 7.89314 146.25 7.61934C145.992 7.34055 145.632 7.20115 145.171 7.20115C144.714 7.20115 144.344 7.35367 144.06 7.65747C143.777 7.9619 143.635 8.35447 143.635 8.83642V13.6116H140.943V5.14831Z" fill="white"/>
<path d="M154.76 11.5278C155.267 11.5278 155.665 11.3402 155.954 10.9652C156.248 10.5851 156.395 10.055 156.395 9.37553C156.395 8.69666 156.248 8.15657 155.954 7.75588C155.66 7.35582 155.262 7.15516 154.76 7.15516C154.258 7.15516 153.863 7.35332 153.574 7.74838C153.28 8.14907 153.133 8.68916 153.133 9.36803C153.133 10.0525 153.277 10.5851 153.566 10.9652C153.855 11.3402 154.253 11.5278 154.76 11.5278ZM154.715 16.7518C153.518 16.7518 152.547 16.5186 151.802 16.0523C151.047 15.5809 150.652 14.9521 150.616 14.1663H153.231C153.288 14.4045 153.459 14.597 153.749 14.7439C154.033 14.8864 154.37 14.9571 154.76 14.9571C155.252 14.9571 155.645 14.8408 155.939 14.6076C156.232 14.3689 156.38 14.0469 156.38 13.6419V12.0372H156.326C156.154 12.4885 155.837 12.8486 155.376 13.1168C154.91 13.3906 154.367 13.5275 153.749 13.5275C152.73 13.5275 151.916 13.1599 151.308 12.4248C150.69 11.6747 150.38 10.6507 150.38 9.35302C150.38 8.00968 150.684 6.95512 151.293 6.19C151.901 5.41924 152.735 5.03418 153.795 5.03418C154.393 5.03418 154.922 5.18108 155.384 5.47488C155.83 5.76368 156.152 6.14937 156.349 6.6307H156.395V5.14795H159.079V13.4437C159.079 14.4476 158.681 15.2484 157.885 15.8466C157.089 16.4498 156.032 16.7518 154.715 16.7518Z" fill="white"/>
<path d="M39.5647 20.6744H37.183L36.5542 22.4115H35.9847L38.1063 16.7412H38.6408L40.7593 22.4115H40.1935L39.5647 20.6744ZM37.3443 20.2112H39.4034L38.3857 17.4051H38.362L37.3443 20.2112Z" fill="white"/>
<path d="M44.7005 22.4119H44.0129L41.9381 20.3409H41.9144V22.4119H41.3993V18.1799H41.9144V20.0852H41.9381L43.9616 18.1799H44.6217L42.4645 20.1915L44.7005 22.4119Z" fill="white"/>
<path d="M48.3155 18.6156H46.8696V22.4119H46.3551V18.6156H44.9086V18.1799H48.3155V18.6156Z" fill="white"/>
<path d="M49.3063 23.8853C49.2169 23.8853 49.1306 23.8753 49.0469 23.854V23.4102C49.125 23.4283 49.2106 23.4377 49.3019 23.4377C49.4932 23.4377 49.6495 23.3814 49.7695 23.2683C49.8876 23.1583 49.9939 22.9701 50.0883 22.7026L50.1827 22.4394L48.5912 18.1799H49.1488L50.4458 21.8855H50.4577L51.7579 18.1799H52.308L50.6578 22.6163C50.4746 23.1139 50.2883 23.4496 50.0995 23.6221C49.9139 23.7977 49.6495 23.8853 49.3063 23.8853Z" fill="white"/>
<path d="M54.1982 22.0022C54.5783 22.0022 54.8952 21.8885 55.1497 21.6603C55.406 21.4353 55.5347 21.1546 55.5347 20.8195V20.352L54.2964 20.4382C53.5706 20.4857 53.2081 20.7514 53.2081 21.2359C53.2081 21.464 53.3 21.6484 53.4831 21.7903C53.6663 21.9316 53.9051 22.0022 54.1982 22.0022ZM54.0964 22.4579C53.6744 22.4579 53.3325 22.3454 53.0706 22.1204C52.8086 21.8922 52.6774 21.5965 52.6774 21.2321C52.6774 20.4957 53.1962 20.0913 54.2339 20.0182L55.5347 19.9313V19.57C55.5347 19.2605 55.4416 19.0211 55.2553 18.8511C55.0671 18.6804 54.8021 18.5954 54.4614 18.5954C54.1657 18.5954 53.9207 18.6661 53.7269 18.8073C53.5331 18.9517 53.4125 19.1493 53.365 19.4012H52.8662C52.8874 19.0286 53.0481 18.7248 53.3494 18.4892C53.6482 18.251 54.0201 18.1316 54.4658 18.1316C54.9502 18.1316 55.3366 18.2572 55.6247 18.5092C55.9104 18.7604 56.0529 19.0999 56.0529 19.5268V22.4111H55.5579V21.6015H55.546C55.431 21.8585 55.2422 22.0654 54.9803 22.2223C54.7158 22.3798 54.4208 22.4579 54.0964 22.4579Z" fill="white"/>
<path d="M57.979 20.5922C57.9315 21.2004 57.8346 21.6455 57.6883 21.9287C57.507 22.2744 57.2283 22.4475 56.8513 22.4475C56.7644 22.4475 56.6857 22.4344 56.615 22.4081V21.9324C56.6782 21.9537 56.7488 21.9637 56.8276 21.9637C57.0345 21.9637 57.1914 21.8355 57.2989 21.5786C57.3908 21.3586 57.4533 21.0235 57.4877 20.5728C57.5477 19.944 57.6027 19.1463 57.6527 18.1799H60.36V22.4119H59.8456V18.6156H58.1203C58.0784 19.4226 58.0315 20.0815 57.979 20.5922Z" fill="white"/>
<path d="M61.8846 20.0577V21.9756H62.8004C63.1098 21.9756 63.3574 21.888 63.543 21.7124C63.7268 21.5392 63.8181 21.308 63.8181 21.0167C63.8181 20.7235 63.7256 20.4903 63.5393 20.3172C63.3561 20.1446 63.1098 20.0577 62.8004 20.0577H61.8846ZM61.3702 18.1799H61.8846V19.6177H62.8004C63.2667 19.6177 63.6387 19.7439 63.9162 19.9952C64.1969 20.249 64.3369 20.5897 64.3369 21.0167C64.3369 21.4411 64.1969 21.7805 63.9162 22.0349C63.6387 22.2862 63.2667 22.4119 62.8004 22.4119H61.3702V18.1799Z" fill="white"/>
<path d="M68.0076 20.4316H65.634V22.4119H65.119V18.1799H65.634V19.9952H68.0076V18.1799H68.522V22.4119H68.0076V20.4316Z" fill="white"/>
<path d="M73.1316 18.1799H73.6467V22.4119H73.1316V18.1799ZM70.0504 20.0577V21.9756H70.9662C71.2756 21.9756 71.5232 21.888 71.7088 21.7124C71.8926 21.5392 71.9839 21.308 71.9839 21.0167C71.9839 20.7235 71.8914 20.4903 71.7051 20.3172C71.5219 20.1446 71.2756 20.0577 70.9662 20.0577H70.0504ZM69.536 18.1799H70.0504V19.6177H70.9662C71.4325 19.6177 71.8045 19.7439 72.0827 19.9952C72.3627 20.249 72.5027 20.5897 72.5027 21.0167C72.5027 21.4411 72.3627 21.7805 72.0827 22.0349C71.8045 22.2862 71.4325 22.4119 70.9662 22.4119H69.536V18.1799Z" fill="white"/>
<path d="M75.6427 16.3994C75.6427 16.6351 75.7133 16.8264 75.8552 16.9733C75.999 17.122 76.1903 17.197 76.4284 17.197C76.6672 17.197 76.8572 17.122 76.9985 16.9733C77.1398 16.8264 77.2104 16.6351 77.2104 16.3994H77.6074C77.6074 16.737 77.4999 17.0083 77.2854 17.2127C77.0679 17.4196 76.7822 17.5234 76.4284 17.5234C76.0721 17.5234 75.7871 17.4196 75.572 17.2127C75.3545 17.0083 75.2457 16.737 75.2457 16.3994H75.6427ZM74.66 22.4117V18.1797H75.1751V21.6022H75.1988L77.6036 18.1797H78.1181V22.4117H77.6036V18.9892H77.5761L75.1751 22.4117H74.66Z" fill="white"/>
<path d="M80.9128 22.4119V18.1799H81.5297L83.2038 21.7243H83.2269L84.8972 18.1799H85.4948V22.4119H84.9759V19.1226H84.9522L83.4038 22.3294H82.9993L81.451 19.1226H81.4272V22.4119H80.9128Z" fill="white"/>
<path d="M87.8565 22.0022C88.236 22.0022 88.5535 21.8885 88.8073 21.6603C89.0642 21.4353 89.1924 21.1546 89.1924 20.8195V20.352L87.9547 20.4382C87.2289 20.4857 86.8664 20.7514 86.8664 21.2359C86.8664 21.464 86.9576 21.6484 87.1414 21.7903C87.3246 21.9316 87.5627 22.0022 87.8565 22.0022ZM87.754 22.4579C87.3327 22.4579 86.9908 22.3454 86.7288 22.1204C86.4663 21.8922 86.3356 21.5965 86.3356 21.2321C86.3356 20.4957 86.8545 20.0913 87.8915 20.0182L89.1924 19.9313V19.57C89.1924 19.2605 89.0992 19.0211 88.9136 18.8511C88.7248 18.6804 88.4604 18.5954 88.1197 18.5954C87.8234 18.5954 87.579 18.6661 87.3846 18.8073C87.1908 18.9517 87.0701 19.1493 87.0233 19.4012H86.5244C86.5451 19.0286 86.7063 18.7248 87.0076 18.4892C87.3064 18.251 87.6784 18.1316 88.1234 18.1316C88.6085 18.1316 88.9948 18.2572 89.283 18.5092C89.5687 18.7604 89.7112 19.0999 89.7112 19.5268V22.4111H89.2161V21.6015H89.2043C89.0892 21.8585 88.9004 22.0654 88.6385 22.2223C88.3735 22.3798 88.0791 22.4579 87.754 22.4579Z" fill="white"/>
<path d="M92.6429 18.1316C93.1774 18.1316 93.6119 18.331 93.9475 18.7292C94.2801 19.1274 94.4464 19.6487 94.4464 20.2932C94.4464 20.9377 94.2801 21.4603 93.9475 21.861C93.6175 22.2592 93.1849 22.4579 92.6504 22.4579C92.3179 22.4579 92.0216 22.3729 91.7622 22.2029C91.5109 22.0404 91.3252 21.8191 91.2046 21.5384H91.1927V23.7982H90.6739V18.1791H91.1652V19.0549H91.1771C91.2896 18.7829 91.4784 18.561 91.7428 18.391C92.0128 18.2179 92.3129 18.1316 92.6429 18.1316ZM92.5523 21.9904C92.9611 21.9904 93.2912 21.836 93.5425 21.5272C93.7912 21.2152 93.9156 20.8052 93.9156 20.297C93.9156 19.7887 93.7912 19.3774 93.5425 19.063C93.2912 18.7511 92.9611 18.5954 92.5523 18.5954C92.1491 18.5954 91.8216 18.7523 91.5696 19.0667C91.3158 19.3837 91.1889 19.7925 91.1889 20.2932C91.1889 20.7958 91.3158 21.2046 91.5696 21.519C91.8216 21.8335 92.1491 21.9904 92.5523 21.9904Z" fill="white"/>
<path d="M98.549 22.4119H97.8614L95.7867 20.3409H95.7629V22.4119H95.2478V18.1799H95.7629V20.0852H95.7867L97.8101 18.1799H98.4702L96.313 20.1915L98.549 22.4119Z" fill="white"/>
<path d="M100.718 18.5917C100.338 18.5917 100.027 18.7211 99.7829 18.9805C99.5367 19.2374 99.4016 19.5762 99.3779 19.9982H102.011C102.006 19.5762 101.885 19.2374 101.65 18.9805C101.411 18.7211 101.101 18.5917 100.718 18.5917ZM102.498 21.2127C102.435 21.5765 102.244 21.8741 101.925 22.1048C101.603 22.3404 101.213 22.4579 100.757 22.4579C100.171 22.4579 99.7042 22.2654 99.3585 21.8803C99.0128 21.4928 98.8397 20.9677 98.8397 20.3045C98.8397 19.6475 99.0116 19.1205 99.3548 18.7248C99.7004 18.3297 100.157 18.1316 100.726 18.1316C101.281 18.1316 101.726 18.3179 102.058 18.6898C102.388 19.0642 102.553 19.5662 102.553 20.1944V20.4226H99.3779V20.4501C99.3779 20.9271 99.5054 21.304 99.7592 21.5822C100.011 21.8597 100.347 21.9985 100.769 21.9985C101.081 21.9985 101.347 21.9253 101.567 21.7784C101.782 21.6372 101.921 21.4484 101.983 21.2127H102.498Z" fill="white"/>
<path d="M106.333 18.6156H104.888V22.4119H104.372V18.6156H102.927V18.1799H106.333V18.6156Z" fill="white"/>
<path d="M106.998 22.4119V18.1799H107.512V21.6024H107.536L109.941 18.1799H110.456V22.4119H109.941V18.9894H109.913L107.512 22.4119H106.998Z" fill="white"/>
<path d="M114.354 20.4316H111.981V22.4119H111.466V18.1799H111.981V19.9952H114.354V18.1799H114.869V22.4119H114.354V20.4316Z" fill="white"/>
<path d="M116.397 18.6154V22.4116H115.882V18.1797H118.566V18.6154H116.397Z" fill="white"/>
<path d="M121.11 22.4119V18.1799H121.624V21.6024H121.648L124.053 18.1799H124.568V22.4119H124.053V18.9894H124.025L121.624 22.4119H121.11Z" fill="white"/>
<path d="M130.211 18.6154H127.877V22.4116H127.362V18.1797H130.725V22.4116H130.211V18.6154Z" fill="white"/>
<path d="M133.709 18.1316C134.243 18.1316 134.678 18.331 135.013 18.7292C135.346 19.1274 135.512 19.6487 135.512 20.2932C135.512 20.9377 135.346 21.4603 135.013 21.861C134.683 22.2592 134.251 22.4579 133.716 22.4579C133.384 22.4579 133.087 22.3729 132.828 22.2029C132.577 22.0404 132.391 21.8191 132.27 21.5384H132.258V23.7982H131.74V18.1791H132.231V19.0549H132.243C132.355 18.7829 132.544 18.561 132.808 18.391C133.079 18.2179 133.378 18.1316 133.709 18.1316ZM133.618 21.9904C134.027 21.9904 134.357 21.836 134.608 21.5272C134.857 21.2152 134.981 20.8052 134.981 20.297C134.981 19.7887 134.857 19.3774 134.608 19.063C134.357 18.7511 134.027 18.5954 133.618 18.5954C133.215 18.5954 132.887 18.7523 132.635 19.0667C132.382 19.3837 132.255 19.7925 132.255 20.2932C132.255 20.7958 132.382 21.2046 132.635 21.519C132.887 21.8335 133.215 21.9904 133.618 21.9904Z" fill="white"/>
<path d="M138.023 22.4579C137.442 22.4579 136.977 22.2617 136.628 21.8685C136.277 21.4784 136.101 20.9533 136.101 20.2932C136.101 19.6356 136.277 19.1099 136.628 18.7173C136.977 18.3266 137.442 18.1316 138.023 18.1316C138.607 18.1316 139.074 18.3266 139.422 18.7173C139.773 19.1099 139.948 19.6356 139.948 20.2932C139.948 20.9508 139.773 21.4759 139.422 21.8685C139.074 22.2617 138.607 22.4579 138.023 22.4579ZM138.023 21.9904C138.456 21.9904 138.796 21.8397 139.044 21.5384C139.294 21.2346 139.418 20.8195 139.418 20.2932C139.418 19.7662 139.294 19.3512 139.044 19.0474C138.796 18.7461 138.456 18.5954 138.023 18.5954C137.594 18.5954 137.254 18.7461 137.005 19.0474C136.757 19.3512 136.632 19.7662 136.632 20.2932C136.632 20.8195 136.757 21.2346 137.005 21.5384C137.254 21.8397 137.594 21.9904 138.023 21.9904Z" fill="white"/>
<path d="M143.643 18.6156H141.804C141.764 19.3651 141.715 20.024 141.658 20.5922C141.603 21.2554 141.476 21.7086 141.277 21.9518V21.9756H143.643V18.6156ZM140.318 23.5321V21.9756H140.66C140.943 21.7924 141.114 21.3248 141.175 20.5728C141.253 19.6033 141.308 18.8057 141.34 18.1799H144.161V21.9756H144.845V23.5321H144.358V22.4119H140.805V23.5321H140.318Z" fill="white"/>
<path d="M146.833 22.0022C147.213 22.0022 147.53 21.8885 147.784 21.6603C148.041 21.4353 148.169 21.1546 148.169 20.8195V20.352L146.931 20.4382C146.206 20.4857 145.843 20.7514 145.843 21.2359C145.843 21.464 145.935 21.6484 146.118 21.7903C146.301 21.9316 146.54 22.0022 146.833 22.0022ZM146.731 22.4579C146.309 22.4579 145.967 22.3454 145.706 22.1204C145.444 21.8922 145.312 21.5965 145.312 21.2321C145.312 20.4957 145.831 20.0913 146.869 20.0182L148.169 19.9313V19.57C148.169 19.2605 148.077 19.0211 147.89 18.8511C147.701 18.6804 147.437 18.5954 147.096 18.5954C146.801 18.5954 146.556 18.6661 146.362 18.8073C146.168 18.9517 146.047 19.1493 146 19.4012H145.501C145.522 19.0286 145.683 18.7248 145.984 18.4892C146.283 18.251 146.655 18.1316 147.101 18.1316C147.585 18.1316 147.972 18.2572 148.26 18.5092C148.545 18.7604 148.688 19.0999 148.688 19.5268V22.4111H148.193V21.6015H148.181C148.066 21.8585 147.877 22.0654 147.615 22.2223C147.351 22.3798 147.056 22.4579 146.731 22.4579Z" fill="white"/>
<path d="M154.956 22.4119H154.272L152.374 20.3409H152.35V22.4119H151.836V20.3409H151.812L149.914 22.4119H149.246L151.293 20.2034L149.309 18.1799H149.965L151.812 20.0852H151.836V18.1799H152.35V20.0852H152.374L154.221 18.1799H154.873L152.897 20.1915L154.956 22.4119Z" fill="white"/>
<path d="M155.565 22.4119V18.1799H156.08V21.6024H156.104L158.508 18.1799H159.024V22.4119H158.508V18.9894H158.481L156.08 22.4119H155.565Z" fill="white"/>
<path fill-rule="evenodd" clip-rule="evenodd" d="M20.9117 15.2359L20.973 14.9908L22.75 20.4444L22.5356 20.7508V20.7202L22.4743 20.8427C17.3577 27.6444 6.51182 26.3269 2.49822 19.4027C-1.76048 12.0496 2.5595 2.33727 10.8931 0.590902C11.7509 0.437712 12.6394 0.345797 13.528 0.345797C17.4803 0.345797 21.6471 2.06153 23.7611 5.52364L25.4155 1.01983H30.5628L26.6717 11.8351L29.184 18.8206C29.4598 19.5253 30.2257 19.9236 30.9304 19.7397L31.1449 19.6785L32.5236 24.3048L30.8691 24.7337C28.51 25.3159 26.0896 24.121 25.2011 21.8538C24.9866 21.4555 24.7721 21.0265 24.619 20.567L23.6998 18.1465L23.6385 18.0546V18.024L21.5858 11.8045C20.4522 8.37299 18.3381 6.71853 16.653 6.04449C15.7339 5.61555 14.6922 5.40109 13.5892 5.40109C9.33053 5.40109 5.89906 8.80192 5.89906 12.9687C5.89906 17.1355 9.33053 20.5363 13.5892 20.5363C17.0207 20.5363 19.9313 18.2997 20.9117 15.2359Z" fill="url(#paint0_linear_1_90)"/>
<defs>
<linearGradient id="paint0_linear_1_90" x1="0.874404" y1="0.695073" x2="31.5125" y2="0.695073" gradientUnits="userSpaceOnUse">
<stop stop-color="#7A5FFF"/>
<stop offset="1" stop-color="#00E824"/>
</linearGradient>
</defs>
</svg>
